<?xml version="1.0" encoding="utf-8"?>
<!-- Generator: Adobe Illustrator 24.1.2, SVG Export Plug-In . SVG Version: 6.00 Build 0)  -->
<svg version="1.1" id="Capa_1" focusable="false" xmlns="http://www.w3.org/2000/svg" xmlns:xlink="http://www.w3.org/1999/xlink"
	 x="0px" y="0px" viewBox="0 0 16 16" style="enable-background:new 0 0 16 16;" xml:space="preserve">
<style type="text/css">
	.st0{fill:#FFFFFF;fill-opacity:0.87;}
</style>
<path class="st0" d="M2,4c1.1,0,2-0.9,2-2S3.1,0,2,0S0,0.9,0,2S0.9,4,2,4z M8,16c1.1,0,2-0.9,2-2s-0.9-2-2-2s-2,0.9-2,2S6.9,16,8,16
	z M2,16c1.1,0,2-0.9,2-2s-0.9-2-2-2s-2,0.9-2,2S0.9,16,2,16z M2,10c1.1,0,2-0.9,2-2S3.1,6,2,6S0,6.9,0,8S0.9,10,2,10z M8,10
	c1.1,0,2-0.9,2-2S9.1,6,8,6S6,6.9,6,8S6.9,10,8,10z M12,2c0,1.1,0.9,2,2,2s2-0.9,2-2s-0.9-2-2-2S12,0.9,12,2z M8,4c1.1,0,2-0.9,2-2
	S9.1,0,8,0S6,0.9,6,2S6.9,4,8,4z M14,10c1.1,0,2-0.9,2-2s-0.9-2-2-2s-2,0.9-2,2S12.9,10,14,10z M14,16c1.1,0,2-0.9,2-2s-0.9-2-2-2
	s-2,0.9-2,2S12.9,16,14,16z"/>
</svg>
