<?xml version="1.0" encoding="utf-8"?>
<!-- Generator: Adobe Illustrator 24.1.2, SVG Export Plug-In . SVG Version: 6.00 Build 0)  -->
<svg version="1.1" id="Standard_product_icon" xmlns="http://www.w3.org/2000/svg" xmlns:xlink="http://www.w3.org/1999/xlink"
	 x="0px" y="0px" viewBox="0 0 160 144" style="enable-background:new 0 0 160 144;" xml:space="preserve">
<style type="text/css">
	.st0{fill:none;}
	.st1{fill:#4285F4;}
	.st2{fill:#EA4335;}
	.st3{fill:#34A853;}
	.st4{fill:#FBBC04;}
</style>
<rect id="bounding_box_1_" x="-16" y="-24" class="st0" width="192" height="192"/>
<g id="art_layer">
	<circle id="Dot" class="st1" cx="80" cy="80.15" r="28"/>
	<path id="Red" class="st2" d="M144,48v40.15V112c0,1.69-0.34,3.29-0.82,4.82l0,0l0,0c-1.57,4.92-5.43,8.78-10.35,10.35l0,0l0,0
		c-1.53,0.49-3.13,0.82-4.82,0.82H50l16,16h50h12c4.42,0,8.63-0.9,12.46-2.51c3.83-1.62,7.28-3.96,10.17-6.86
		c1.45-1.45,2.76-3.03,3.91-4.74c2.3-3.4,3.96-7.28,4.81-11.44c0.43-2.08,0.65-4.24,0.65-6.45v-12V72.15V60l-6-19l-10.82,2.18
		C143.66,44.71,144,46.31,144,48z"/>
	<path id="Blue" class="st1" d="M16,48c0-1.69,0.34-3.29,0.82-4.82c1.57-4.92,5.43-8.78,10.35-10.35C28.71,32.34,30.31,32,32,32h96
		c1.69,0,3.29,0.34,4.82,0.82l0,0L133,21l-17-5L100,0H86.56H80h-6.56H60L44,16H32C14.33,16,0,30.33,0,48v12v20l16,16V48z"/>
	<path id="Green" class="st3" d="M128,16h-12l16.83,16.83c1.23,0.39,2.39,0.93,3.47,1.59c2.16,1.32,3.97,3.13,5.29,5.29
		c0.66,1.08,1.2,2.24,1.59,3.47l0,0L160,60V48C160,30.33,145.67,16,128,16z"/>
	<path id="Yellow" class="st4" d="M32,144h39.89l-16-16H32c-8.82,0-16-7.18-16-16V88.11l-16-16V112C0,129.67,14.33,144,32,144z"/>
</g>
</svg>
