<?xml version="1.0" encoding="utf-8"?>
<!-- Generator: Adobe Illustrator 24.1.2, SVG Export Plug-In . SVG Version: 6.00 Build 0)  -->
<svg version="1.1" id="Capa_1" xmlns="http://www.w3.org/2000/svg" xmlns:xlink="http://www.w3.org/1999/xlink" x="0px" y="0px"
	 viewBox="0 0 430 142" style="enable-background:new 0 0 430 142;" xml:space="preserve">
<style type="text/css">
	.st0{fill:#FFFFFF;}
</style>
<g>
	<path class="st0" d="M91.5,65.65c-12.25-0.32-23.82,0.12-35.72-0.26c-0.26-5.25-0.24-9.98,0.04-15c17.14,0,33.87,0,50.61,0
		c0.28,0.51,0.68,0.91,0.73,1.36c1.14,10.59,0.43,20.97-4.29,30.69c-7.46,15.39-20.09,23.92-36.69,26.87
		c-11.1,1.98-21.84,0.56-32.18-3.87c-20.55-8.81-33.52-29.34-33.8-50C-0.17,28.94,20.33,4.22,48.19,0.29
		c16.68-2.35,31.22,2,43.9,12.95c0.49,0.42,0.9,0.94,1.31,1.36c-1.64,3.3-5.3,7.2-10.31,10.98c-0.58-0.34-1.35-0.63-1.93-1.14
		C61.37,6.98,24.52,14.5,18.06,46.71c-5.99,29.9,18.81,51.81,45.8,47.07c7.62-1.34,14.18-4.58,19.61-10.09
		C88.24,78.87,90.3,72.87,91.5,65.65z"/>
	<path class="st0" d="M318.12,45.78c0.33-1.62,0.59-2.86,0.83-4.03c4.09-0.89,10.17-0.9,14.7,0.02c0.08,1.35,0.25,2.8,0.25,4.25
		c0.02,19.61,0.03,39.23-0.01,58.84c-0.01,5.51-0.78,10.95-2.65,16.14c-4.45,12.37-13.52,18.94-26.39,20.38
		c-9.23,1.03-17.87-0.61-25.43-6.41c-3.88-2.97-7.02-6.59-9.42-10.83c-0.55-0.97-0.81-2.1-1.26-3.32c3.98-2.87,8.51-3.97,13.06-6.03
		c1.05,1.47,2.07,2.72,2.91,4.08c4.24,6.86,13.87,11.08,24.24,6.39c3.99-1.81,6.63-4.95,7.96-9.11c1.36-4.28,1.92-8.67,1.6-13.62
		c-0.97,0.72-1.63,1.19-2.26,1.68c-8.52,6.62-17.95,7.64-27.73,3.74c-12.9-5.14-20.45-14.78-22.68-28.6
		c-2.59-16.05,7.51-32.16,20.87-37.78c10.22-4.3,20.02-4.13,29.2,2.73C316.53,44.77,317.21,45.18,318.12,45.78z M281.78,74.66
		c0.12,1.49,0.16,2.98,0.37,4.46c1.14,7.86,7.99,14.94,15.57,16.1c9.28,1.42,16.76-3.71,19.79-10.83c2.6-6.12,2.69-12.21,0.48-18.38
		c-5.01-13.97-21.23-17.11-31.09-6C283.22,64.16,281.58,69.1,281.78,74.66z"/>
	<path class="st0" d="M260.37,74.39c0.6,16.82-12.07,35.53-35.07,35.65c-23.4,0.13-36.25-17.74-36.24-35.62
		c0.01-19.16,14.45-35.67,35.72-35.67C247.18,38.76,260.93,56.44,260.37,74.39z M244.29,74.61c-0.09-1.47-0.11-2.64-0.25-3.79
		c-1.01-8.32-7.53-15.62-15.28-17.12c-8.23-1.6-16.33,1.87-20.45,9.17c-4.44,7.87-4.4,15.95,0.36,23.67
		c5.28,8.57,16.02,11.42,24.89,6.7C241.09,89.23,244.13,82.56,244.29,74.61z"/>
	<path class="st0" d="M382.87,85.32c3.73,7.2,9.27,10.1,16.75,10.14c7.38,0.04,12.52-3.74,16.92-9.53c4.46,2.36,8.36,5.02,12.3,8.09
		c-2.22,4.18-5.48,7.24-9.15,9.73c-21.33,14.48-50.54,3.06-54.99-22.49c-2.17-12.45,0.6-23.52,9.39-32.64
		c13.91-14.42,39.29-14.19,51.21,6.86c1.7,3,2.9,6.29,4.52,9.83c-5.06,3.09-10.51,4.59-15.59,6.88c-5.14,2.32-10.42,4.33-15.63,6.5
		C393.42,80.85,388.27,83.04,382.87,85.32z M380.62,72.64c10.24-4.28,20.08-8.39,29.99-12.52c-3.77-6.28-10.51-8.46-17.57-6.19
		C385.97,56.21,379.15,64.38,380.62,72.64z"/>
	<path class="st0" d="M113.17,74.25c0.04-15.5,8.93-28.31,23.69-33.47c17.58-6.14,36.82,1.88,44.21,18
		c2.26,4.94,2.99,10.28,2.95,15.55c-0.06,6.81-1.12,13.55-5,19.52c-5.15,7.92-12.33,13.09-21.44,15.13
		c-13.45,3.01-25.45-0.15-35.09-10.22C116.03,92,113,83.67,113.17,74.25z M168.33,74.05c0.18-4-0.87-8.18-3.36-11.85
		c-4.15-6.12-9.98-9.12-17.42-8.71c-7.09,0.38-12.33,3.95-15.61,10.04c-3.22,5.98-3.65,12.47-1.33,18.86
		c3.67,10.13,14.15,15.62,24.58,11.9C163.44,91.35,168.34,83.95,168.33,74.05z"/>
	<path class="st0" d="M357.77,107.54c-5.15,0-10.01,0-14.87,0c-1.03-4.22-0.99-99.54,0.15-103.79c4.75-0.26,9.63-0.22,14.72,0.03
		C357.77,38.54,357.77,72.83,357.77,107.54z"/>
</g>
</svg>
