<?xml version="1.0" encoding="utf-8"?>
<!-- Generator: Adobe Illustrator 24.1.2, SVG Export Plug-In . SVG Version: 6.00 Build 0)  -->
<svg version="1.1" id="Capa_1" xmlns="http://www.w3.org/2000/svg" xmlns:xlink="http://www.w3.org/1999/xlink" x="0px" y="0px"
	 viewBox="0 0 430.61 142.33" style="enable-background:new 0 0 430.61 142.33;" xml:space="preserve">
<style type="text/css">
	.st0{fill:#FFFFFF;}
</style>
<path class="st0" d="M91.52,66.14c-12.28-0.32-23.87,0.12-35.8-0.26c-0.26-5.27-0.24-10,0.04-15.03c17.18,0,33.94,0,50.73,0
	c0.28,0.51,0.68,0.92,0.73,1.36c1.15,10.61,0.43,21.02-4.3,30.76c-7.48,15.42-20.14,23.97-36.78,26.93
	c-11.13,1.98-21.89,0.56-32.26-3.88C13.28,97.19,0.28,76.61,0,55.9C-0.36,29.34,20.18,4.56,48.1,0.62c16.72-2.36,31.3,2.01,44,12.98
	c0.49,0.42,0.9,0.94,1.31,1.37c-1.64,3.31-5.31,7.22-10.33,11.01c-0.58-0.34-1.36-0.63-1.94-1.15
	C61.31,7.32,24.38,14.87,17.91,47.15C11.9,77.12,36.76,99.08,63.82,94.33c7.64-1.34,14.21-4.59,19.66-10.11
	C88.25,79.4,90.32,73.37,91.52,66.14z"/>
<path class="st0" d="M318.66,46.22c0.34-1.62,0.59-2.87,0.83-4.04c4.1-0.9,10.2-0.9,14.73,0.02c0.08,1.36,0.25,2.81,0.25,4.26
	c0.02,19.66,0.03,39.32-0.01,58.98c-0.01,5.52-0.78,10.97-2.66,16.18c-4.46,12.4-13.55,18.98-26.45,20.42
	c-9.25,1.03-17.91-0.61-25.49-6.42c-3.89-2.98-7.04-6.6-9.44-10.86c-0.55-0.97-0.81-2.11-1.27-3.33c3.99-2.88,8.53-3.98,13.09-6.04
	c1.05,1.47,2.07,2.73,2.92,4.09c4.25,6.88,13.9,11.11,24.3,6.4c4-1.81,6.65-4.96,7.97-9.14c1.36-4.29,1.92-8.69,1.6-13.65
	c-0.98,0.72-1.63,1.19-2.26,1.68c-8.54,6.63-17.99,7.65-27.79,3.75c-12.93-5.15-20.49-14.82-22.73-28.67
	c-2.6-16.09,7.53-32.23,20.92-37.86c10.24-4.31,20.07-4.14,29.27,2.73C317.07,45.22,317.75,45.62,318.66,46.22z M282.24,75.18
	c0.12,1.49,0.16,2.99,0.37,4.47c1.14,7.88,8,14.97,15.6,16.13c9.3,1.42,16.8-3.71,19.84-10.85c2.61-6.13,2.69-12.24,0.48-18.42
	c-5.02-14-21.28-17.15-31.16-6.01C283.68,64.65,282.04,69.6,282.24,75.18z"/>
<path class="st0" d="M260.78,74.9c0.6,16.86-12.1,35.61-35.15,35.73c-23.45,0.13-36.33-17.78-36.32-35.7
	c0.01-19.21,14.48-35.75,35.8-35.75C247.56,39.19,261.34,56.91,260.78,74.9z M244.66,75.12c-0.09-1.47-0.11-2.64-0.25-3.8
	c-1.01-8.34-7.55-15.66-15.32-17.16c-8.25-1.6-16.36,1.87-20.5,9.19c-4.46,7.89-4.41,15.98,0.36,23.73
	c5.29,8.59,16.06,11.44,24.95,6.71C241.46,89.78,244.5,83.09,244.66,75.12z"/>
<path class="st0" d="M383.56,85.85c3.74,7.22,9.29,10.12,16.79,10.16c7.39,0.04,12.55-3.74,16.96-9.55
	c4.47,2.36,8.38,5.03,12.33,8.11c-2.23,4.19-5.49,7.25-9.17,9.75c-21.38,14.51-50.65,3.06-55.12-22.54
	c-2.17-12.48,0.6-23.58,9.41-32.71c13.94-14.45,39.38-14.22,51.32,6.87c1.7,3.01,2.91,6.3,4.53,9.85c-5.07,3.1-10.54,4.6-15.62,6.89
	c-5.15,2.33-10.45,4.34-15.67,6.52C394.14,81.38,388.98,83.57,383.56,85.85z M381.3,73.15c10.27-4.29,20.13-8.41,30.06-12.55
	c-3.78-6.3-10.54-8.48-17.61-6.2C386.67,56.68,379.83,64.87,381.3,73.15z"/>
<path class="st0" d="M113.25,74.76c0.04-15.54,8.95-28.37,23.75-33.54c17.62-6.16,36.9,1.89,44.31,18.04
	c2.27,4.95,3,10.3,2.96,15.58c-0.06,6.82-1.12,13.58-5.01,19.56c-5.17,7.93-12.35,13.12-21.49,15.16
	c-13.48,3.02-25.5-0.15-35.17-10.24C116.11,92.55,113.07,84.2,113.25,74.76z M168.53,74.56c0.18-4.01-0.87-8.19-3.37-11.88
	c-4.16-6.13-10-9.14-17.46-8.73c-7.1,0.39-12.35,3.96-15.64,10.07c-3.23,5.99-3.66,12.5-1.34,18.91
	c3.67,10.15,14.18,15.66,24.64,11.93C163.63,91.9,168.53,84.48,168.53,74.56z"/>
<path class="st0" d="M358.41,108.13c-5.16,0-10.04,0-14.9,0c-1.03-4.23-0.99-99.77,0.15-104.03c4.76-0.26,9.65-0.22,14.75,0.03
	C358.41,38.97,358.41,73.34,358.41,108.13z"/>
</svg>
