<?xml version="1.0" encoding="utf-8"?>
<!-- Generator: Adobe Illustrator 24.1.2, SVG Export Plug-In . SVG Version: 6.00 Build 0)  -->
<svg version="1.1" id="Capa_1" focusable="false" xmlns="http://www.w3.org/2000/svg" xmlns:xlink="http://www.w3.org/1999/xlink"
	 x="0px" y="0px" viewBox="0 0 17.49 17.49" style="enable-background:new 0 0 17.49 17.49;" xml:space="preserve">
<style type="text/css">
	.st0{fill:#9AA0A6;}
</style>
<path class="st0" d="M12.5,11h-0.79l-0.28-0.27C12.44,9.55,13,8.05,13,6.5C13,2.91,10.09,0,6.5,0S0,2.91,0,6.5S2.91,13,6.5,13
	c1.61,0,3.09-0.59,4.23-1.57L11,11.71v0.79l5,4.99L17.49,16L12.5,11z M6.5,11C4.01,11,2,8.99,2,6.5S4.01,2,6.5,2S11,4.01,11,6.5
	S8.99,11,6.5,11z"/>
</svg>
