<?xml version="1.0" encoding="utf-8"?>
<!-- Generator: Adobe Illustrator 24.1.2, SVG Export Plug-In . SVG Version: 6.00 Build 0)  -->
<svg version="1.1" id="Capa_1" focusable="false" xmlns="http://www.w3.org/2000/svg" xmlns:xlink="http://www.w3.org/1999/xlink"
	 x="0px" y="0px" viewBox="0 0 13.98 20" style="enable-background:new 0 0 13.98 20;" xml:space="preserve">
<style type="text/css">
	.st0{fill:#4285F4;}
	.st1{fill:#34A853;}
	.st2{fill:#FBBC04;}
	.st3{fill:#EA4335;}
</style>
<path class="st0" d="M6.99,13c1.66,0,3-1.31,3-2.97V3.01c0-1.66-1.34-3.01-3-3.01s-3,1.34-3,3.01v7.02C3.99,11.69,5.33,13,6.99,13z"
	/>
<path class="st1" d="M5.99,16.08h2V20h-2V16.08z"/>
<path class="st2" d="M2.04,14.87C0.77,13.54-0.01,12.04-0.01,10h2c0,1.45,0.56,2.42,1.47,3.38v0.32l-1.15,1.18L2.04,14.87z"/>
<path class="st3" d="M6.99,14.93c-1.33,0-2.6-0.55-3.54-1.55l-1.41,1.49C3.3,16.21,5.06,17,6.99,17c3.87,0,6.99-2.92,6.99-7h-1.99
	C11.99,12.92,9.75,14.93,6.99,14.93z"/>
</svg>
