<?xml version="1.0" encoding="utf-8"?>
<!-- Generator: Adobe Illustrator 24.1.2, SVG Export Plug-In . SVG Version: 6.00 Build 0)  -->
<svg version="1.1" id="Capa_1" xmlns="http://www.w3.org/2000/svg" xmlns:xlink="http://www.w3.org/1999/xlink" x="0px" y="0px"
	 viewBox="0 0 1280 1024" style="enable-background:new 0 0 1280 1024;" xml:space="preserve">
<style type="text/css">
	.st0{fill:#CFE8AA;}
	.st1{fill:#282F39;}
	.st2{fill:#BDE085;}
	.st3{fill:#FFFFFF;}
	.st4{fill:#666666;}
	.st5{fill:#FAC9DC;}
	.st6{fill:#EF9AC0;}
</style>
<g>
	<g>
		<circle class="st0" cx="640" cy="512" r="311.5"/>
	</g>
	<path class="st1" d="M582.3,554.21c0.02,0.11,0.03,0.22,0.05,0.33c-0.04-0.06-0.09-0.11-0.14-0.16
		C582.21,554.38,582.3,554.21,582.3,554.21z"/>
	<path class="st2" d="M664.74,252.71c1.08,1.7,1.95,3.54,3.37,5.02c1.11,2.83,2.25,5.64,4.27,7.97c0.55,3.54,2.53,6.55,3.72,9.85
		c2.52,6.95,4.9,13.93,6.98,21.03c1.88,6.4,3.61,12.83,5.25,19.29c2.69,10.6,5.15,21.25,6,32.2c0.94,11.96,0.18,23.84-0.8,35.77
		c-1.29,15.76-2.38,31.57-1.64,47.42c0.08,1.64,0.31,3.28,0.45,4.92c0.12,1.33,0.76,2.05,2.14,2.26c10.35,1.6,20.58,3.78,30.37,7.54
		c11.84,4.54,22.98,10.28,31.16,20.46c7.72,9.6,10.45,20.52,7.78,32.45c-1.73,7.76-2.87,15.51-3.1,23.43
		c-0.2,7.1-3.83,12.45-8.83,16.99c-1.47,1.34-1.15,1.65,0.27,2.43c6.58,3.63,12.13,8.53,16.48,14.6c3.78,5.27,6.34,11.1,6.44,17.81
		c0.16,10.99-0.26,21.91-2.95,32.64c-1.9,7.6-5.87,13.67-12.86,17.52c-0.94,0.52-1.87,1.04-2.8,1.57c-2.86,1.64-2.87,1.66-0.32,3.85
		c0.99,0.85,2.03,1.65,3.05,2.47c0.12,1.98,1.83,3.13,2.52,4.85c1.24,3.08,1.19,6.38,2.01,9.51c-0.11,4.62,0.16,9.24-0.44,13.86
		c-0.03,0.23-0.06,0.45-0.1,0.64c0.31,2.66-0.28,5.51-0.73,8.12c-0.54,3.14-1.22,6.13-2.27,9.13c-0.06,0.16-0.11,0.32-0.15,0.48
		c-0.4,1.64-1.1,3.16-1.71,4.79c-1.82,4.89-5.53,7.91-9.82,10.45c-1.6,0.95-3.31,1.75-4.67,3.07c-3.91,2.01-3.9,2-1.82,5.65
		c3.45,6.05,6.1,12.35,6.35,19.46c0.2,5.62-0.08,11.17-1.68,16.59c-2.07,3.6-3.28,7.65-5.77,11.03c-1.25,1.71-2.44,3.47-3.65,5.2
		c-1.23,1.44-2.46,2.88-3.69,4.32c-5.22,5.19-10.92,9.76-17.26,13.54c-8.79,5.24-18.16,8.98-28.19,11.03
		c-0.48,0.1-0.95,0.26-1.42,0.4c-3.18,0.33-6.36,0.66-9.55,1c-7.88,0.72-14.93-2.6-22.28-4.52c-3.08-0.81-6.05-2.05-9.25-2.39
		c-2.12-1.15-4.52-1.53-6.76-2.35c-6.59-2.25-13.22-4.4-19.77-6.77c-8.4-3.05-16.79-6.13-24.99-9.71
		c-7.05-3.07-14.06-6.24-20.85-9.84c-0.74-0.39-1.42-0.81-2.28-0.75c-0.56-0.47-1.06-1.05-1.69-1.4c-5-2.76-9.75-5.87-14.15-9.51
		l85.38,85.38c162.92-0.27,296.49-125.61,309.86-285.14L664.74,252.71z"/>
	<g>
		<path class="st3" d="M600.12,425.04c4.5-4.58,8.39-9.58,10.57-15.66c1.81-5.05,1.72-10.37,1.26-15.66
			c-0.47-5.36-0.54-10.72-0.39-16.08c0.14-4.73,1.77-6.2,6.42-5.86c2.24,0.16,4.51,0.18,6.64-0.36c2.11-0.53,3.98-1.87,6.16-2.97
			c-1.56,0-3.12-0.01-4.68,0c-3.63,0.04-7.26,0.22-10.85-0.54c-3.18-0.67-4.81-2.46-5.2-5.67c-1.39-11.29-3.17-22.54-4.12-33.86
			c-1.21-14.53-2.63-29.08-0.59-43.71c1.14-8.18,2.43-16.23,6.16-23.69c4.89-9.8,12.48-15.44,23.72-15.9
			c12.44-0.51,21.07,5.06,26.93,15.78c6.68,12.23,11.16,25.27,15.08,38.58c3.6,12.22,6.18,24.7,9.94,36.87
			c0.75,2.43,1.11,4.98,1.56,7.49c0.93,5.13-1.42,8.73-5.59,11.27c-5.56,3.38-11.79,4.87-18.11,6.07c-1.77,0.34-3.53,0.68-5.3,1.02
			c-0.02,0.08-0.04,0.16-0.06,0.25c4.03,0,8.06,0.07,12.09-0.02c4.29-0.1,8.58-0.36,12.86-0.53c2.96-0.12,3.9,0.79,4.12,3.8
			c0.29,3.99-0.48,7.9-0.87,11.83c-1.74,17.91-3.37,35.82-2.17,53.85c0.38,5.72,0.27,5.82-5.53,5.42
			c-5.76-0.4-11.51-1.33-17.28-0.43c-5.32,0.83-10.62,1.06-16.01,0.74c-7.17-0.43-14.26-1.47-21.37-2.36
			c-10.55-1.32-21.08-2.68-31.1-3.06C596.15,429.62,598,427.2,600.12,425.04z"/>
		<path class="st3" d="M768.78,578.9c-0.2,8.56-0.47,17.19-2.72,25.53c-2.42,9-7.77,15.45-16.91,18.47
			c-8.45,2.8-17.1,2.58-25.72,1.68c-15.57-1.62-31.01-4.27-46.7-5.06c-12.33-0.62-24.67-1.83-36.8-4.35
			c-9.16-1.91-18.13-4.56-26.8-8.13c-2.91-1.19-5.79-2.45-9.27-3.93c4.03,5.83,9.7,8.28,15.85,11.15
			c-6.57,1.06-12.12,2.65-15.74,8.63c2.9-1.14,5.33-2.24,7.85-3.07c7.68-2.54,15.47-1.82,23.24-0.52c11.93,2,23.57,5.36,35.43,7.64
			c11.62,2.24,23.42,2.73,35.23,2.54c10.48-0.17,20.96-0.56,31.44-0.69c5.98-0.07,11.6,1.19,15.87,5.89
			c2.94,3.23,3.69,7.27,4.09,11.39c0.47,4.84,0.03,9.66,0.13,14.51c0,2.59-0.83,5.07-1.24,7.6c-0.43,2.71-0.96,5.41-1.56,8.09
			c-0.32,1.39-0.66,2.79-1.29,4.06c-1.48,3-4.77,4.49-7.5,6.15c-3.35,2.04-6.68,4.11-9.89,6.36c-5.11,3.59-10.81,5.28-16.83,5.49
			c-9.08,0.32-18.13,0.93-27.19,1.43c-6.94,0.38-13.84-0.56-20.77-0.86c-7.5-0.33-14.97-1.07-22.43-1.91
			c-6.7-0.75-13.37-1.81-19.95-3.35c-0.63-0.15-1.23-0.49-1.88,0.11c3.62,2.33,7.62,3.51,11.88,4.34c-1.92,1.71-4.69,1.72-6.51,3.95
			c12.67-2.07,24.95-0.94,37.25,0.57c14.97,1.83,29.93,4.32,45.09,2.8c4.58-0.46,9.2-0.65,13.75-1.53c4.42-0.85,7.77,1.05,9.7,5.33
			c3.7,8.21,4.12,16.71,1.92,25.35c-3.58,14.02-12.94,23.48-24.8,30.84c-7,4.34-14.52,7.61-22.41,9.96
			c-11.36,3.38-22.69,3.51-34-0.45c-9.12-3.2-17.28-8.2-25.5-13.1c-6.69-3.99-13.47-7.81-20.53-11.11c-0.2-0.09-0.48-0.01-1.38-0.01
			c11.06,6.88,20.66,14.89,31.44,21.19c0.76,0.45,1.52,0.9,2.71,1.61c-1.44-0.37-2.41-0.62-3.39-0.87
			c-9.56-3.64-19.1-7.36-28.37-11.68c-10.52-4.9-21.67-8.48-31.57-14.65c-12.35-7.7-22.25-17.88-29.26-30.67
			c-2.49-4.55-4.18-9.39-3.96-14.82c0.29-7.09,4.06-11.36,10.18-14.2c2.79-1.3,5.8-1.75,8.68-2.71c0.85-0.29,2.1-0.23,2.16-1.27
			c0.07-1.1-1.15-1.54-2.05-1.8c-3.79-1.09-7.63-2-11.42-3.1c-11.61-3.39-22.87-7.45-31.68-16.29c-5.52-5.53-8.35-12.35-9.72-19.91
			c-1.23-6.74-1.38-13.49,0.11-20.17c2.26-10.16,6.81-17.76,19-19.52c1.54-0.22,3.1-0.5,4.57-1c2.46-0.83,2.85-2.5,1.1-4.46
			c-0.75-0.84-1.67-1.54-2.54-2.26c-7.59-6.27-12.07-14.31-13.94-23.94c-1.45-7.46-2.47-14.94-2.5-22.57
			c-0.03-8.4,2.42-16.23,5.24-23.96c2.48-6.8,5.72-13.19,11.24-18.14c1.2-1.07,1.14-2.07,0.27-3.44c-2.85-4.5-5.13-9.3-4.51-14.8
			c2.01-17.99,9.41-32.6,26.01-41.58c12.52-6.77,26.06-8.29,39.91-8.24c9.65,0.03,19.27,0.94,28.92,2.44
			c-7.06,1.85-14.28,3.18-21.04,6.39c0.87,0.89,1.71,0.46,2.45,0.37c20.57-2.63,41.21-4.2,61.96-3.65c15.2,0.4,30.3,1.92,44.96,6.11
			c11.78,3.37,22.94,8.22,31.5,17.47c7.71,8.33,12.39,17.91,11.05,29.64c-0.3,2.6-0.81,5.23-1.61,7.72
			c-1.58,4.92-1.75,10.06-2.66,15.08c-1.53,8.43-5,15.53-12.78,19.9c-0.07,0.04-0.14,0.09-0.21,0.13c-0.35,0.24-0.69,0.52-1.04,0.74
			c-0.43,0.27-0.97,0.44-1.43,0.64c-0.49,0.22-0.99,0.44-1.49,0.63c-2.93,1.1-6.03,1.25-9.12,1.39
			c-13.68,0.63-26.51-2.76-38.96-8.08c-5.28-2.26-10.72-4.1-16.38-5.22c-7.24-1.44-14.58-1.43-21.93-1.64
			c-9.96-0.28-19.22-3.12-27.83-8.17c-1.3-0.76-2.43-2.1-4.54-2.08c2.67,3.13,5.61,5.47,8.93,8.36c-1.93,0.21-3.29,0.27-4.62,0.51
			c-4.67,0.86-8.69,2.85-11.53,6.8c0.61,0.19,1.06-0.14,1.58-0.39c7.19-3.59,14.59-4.99,22.31-1.81c2.22,0.91,4.5,1.58,6.8,2.14
			c7.59,1.85,15.35,2.02,23.1,2.13c4.09,0.06,8.04,0.83,11.87,2.03c9.47,2.97,18.89,6.07,28.27,9.33c6.61,2.3,13.33,2.8,20.21,2.11
			c0.87-0.09,1.74-0.33,2.61-0.49c0.99-0.18,1.98-0.36,2.97-0.55c1.66-0.31,3.24-0.9,4.92-1.11c0.39-0.05,0.78-0.06,1.18-0.08
			c1.35-0.04,2.69-0.09,4.04,0c2.78,0.18,5.48,0.97,8.05,2.01c2.98,1.2,5.78,2.83,8.27,4.86c2.41,1.98,4.51,4.33,6.19,6.96
			c1.72,2.69,3,5.64,3.83,8.72C768.5,572.09,768.86,575.5,768.78,578.9z"/>
		<g>
			<path class="st4" d="M611.36,533c0.02-0.03,0.04-0.05,0.06-0.08c0,0-0.01,0-0.01,0L611.36,533z"/>
			<path class="st4" d="M775.09,574.18c-0.1-6.72-2.66-12.54-6.44-17.81c-4.36-6.07-9.9-10.97-16.48-14.6
				c-1.42-0.79-1.74-1.1-0.27-2.44c4.99-4.54,8.63-9.89,8.83-16.99c0.22-7.91,1.36-15.67,3.1-23.43
				c2.67-11.93-0.06-22.86-7.78-32.45c-8.19-10.18-19.33-15.91-31.16-20.46c-9.79-3.76-20.02-5.94-30.37-7.54
				c-1.38-0.21-2.03-0.93-2.14-2.26c-0.14-1.64-0.38-3.27-0.45-4.92c-0.74-15.85,0.35-31.66,1.64-47.42
				c0.98-11.94,1.74-23.82,0.8-35.77c-0.86-10.95-3.31-21.6-6-32.2c-1.64-6.46-3.37-12.89-5.25-19.29
				c-2.09-7.1-4.46-14.08-6.98-21.03c-1.2-3.3-3.18-6.31-3.72-9.85c-2.02-2.34-3.16-5.15-4.27-7.97c-1.83-1.91-2.76-4.44-4.4-6.48
				c-0.88-0.96-1.72-1.96-2.65-2.88c-5.72-5.66-12.52-9.02-20.59-9.71c-4.28-0.25-8.53-0.07-12.77,0.54
				c-7.88,1.15-14.12,5.07-19.25,11.07c-1.66,1.95-2.35,4.58-4.53,6.11c-0.32,1.01-0.54,2.06-0.97,3.03
				c-2.61,5.94-4.02,12.25-4.64,18.6c-0.69,7.1-1.06,14.26-0.78,21.45c0.37,9.48,1.16,18.91,2.25,28.32
				c1.06,9.15,2.57,18.26,3.78,27.4c0.97,7.34,1.7,14.72,2.72,22.05c0.98,7.11,2.07,14.19,1.78,21.4
				c-0.21,5.23-1.89,10.01-4.91,14.25c-4.74,6.64-10.99,11.75-17.41,16.66c-1.36,1.04-2.54,2.68-4.26,2.83
				c-5.2,0.46-10.22,1.67-15.21,3.07c-9.45,2.65-17.82,7.22-24.71,14.23c-6.38,6.5-10.67,14.26-13.65,22.88
				c-2.84,8.24-4.65,16.52-2.72,25.17c1.23,5.51,0.7,10.43-2.6,15.19c-2.57,3.71-4.71,7.73-6.8,11.74
				c-4.76,9.11-6.23,18.86-4.98,29.01c0.58,4.73,1.49,9.41,2.48,14.08c1.34,6.3,3.26,12.41,5.16,18.53
				c1.16,3.71,2.24,7.22-0.1,10.82c-0.77,1.18-2.17,3.93-2.75,4.83c-0.64,1-2.18,3.34-2.99,3.81c-0.63,0.37-4.84,9.79-5.27,10.96
				c-2.41,6.67-2.81,13.58-2.26,20.51c0.52,6.66,2.1,13.11,4.97,19.24c1.75,3.74,4.02,7.15,6,10.74c0.91,0.34,1.3,1.21,1.88,1.88
				c3.38,3.83,6.84,7.57,11.19,10.36c0.08,0.27,0.16,0.53,0.24,0.8c5.9,2.84,7.7,8.38,9.34,14.07c1.14,3.96,1.52,8.06,2.39,12.07
				c0.94,4.32,1.72,8.69,2.85,12.96c1.88,7.08,5.58,13.19,10.69,18.43c4.53,3.81,9.45,7.04,14.63,9.89c0.63,0.35,1.13,0.93,1.69,1.4
				c0.86-0.06,1.54,0.36,2.28,0.75c6.8,3.6,13.8,6.77,20.85,9.84c8.2,3.57,16.59,6.66,24.99,9.71c6.55,2.37,13.17,4.52,19.77,6.77
				c2.24,0.82,4.63,1.2,6.76,2.35c3.2,0.34,6.17,1.58,9.25,2.39c7.35,1.92,14.4,5.24,22.28,4.52c3.18-0.33,6.37-0.66,9.55-1
				c0.47-0.13,0.94-0.3,1.42-0.4c10.04-2.04,19.4-5.78,28.19-11.03c6.34-3.78,12.03-8.35,17.26-13.54c1.23-1.44,2.46-2.88,3.69-4.32
				c1.21-1.74,2.4-3.5,3.65-5.2c2.49-3.39,3.7-7.43,5.77-11.03c1.59-5.43,1.88-10.98,1.68-16.59c-0.26-7.11-2.9-13.41-6.35-19.46
				c-2.08-3.65-2.09-3.65,1.82-5.65c1.36-1.32,3.07-2.12,4.67-3.07c4.29-2.54,8-5.57,9.82-10.45c0.6-1.62,1.3-3.14,1.71-4.79
				c0.04-0.16,0.1-0.32,0.15-0.48c1.06-3,1.74-6,2.27-9.13c0.45-2.61,1.04-5.46,0.73-8.12c0.04-0.19,0.07-0.4,0.1-0.64
				c0.6-4.62,0.33-9.24,0.44-13.86c-0.82-3.13-0.77-6.43-2.01-9.51c-0.69-1.73-2.4-2.88-2.52-4.85c-1.02-0.82-2.06-1.62-3.05-2.47
				c-2.55-2.19-2.55-2.2,0.32-3.85c0.93-0.53,1.86-1.05,2.8-1.57c6.99-3.85,10.96-9.92,12.86-17.52
				C774.83,596.08,775.25,585.17,775.09,574.18z M600.12,425.04c4.5-4.58,8.39-9.58,10.57-15.66c1.81-5.05,1.72-10.37,1.26-15.66
				c-0.47-5.36-0.54-10.72-0.39-16.08c0.14-4.73,1.77-6.2,6.42-5.86c2.24,0.16,4.51,0.18,6.64-0.36c2.11-0.53,3.98-1.87,6.16-2.97
				c-1.56,0-3.12-0.01-4.68,0c-3.63,0.04-7.26,0.22-10.85-0.54c-3.18-0.67-4.81-2.46-5.2-5.67c-1.39-11.29-3.17-22.54-4.12-33.86
				c-1.21-14.53-2.63-29.08-0.59-43.71c1.14-8.18,2.43-16.23,6.16-23.69c4.89-9.8,12.48-15.44,23.72-15.9
				c12.44-0.51,21.07,5.06,26.93,15.78c6.68,12.23,11.16,25.27,15.08,38.58c3.6,12.22,6.18,24.7,9.94,36.87
				c0.75,2.43,1.11,4.98,1.56,7.49c0.93,5.13-1.42,8.73-5.59,11.27c-5.56,3.38-11.79,4.87-18.11,6.07c-1.77,0.34-3.53,0.68-5.3,1.02
				c-0.02,0.08-0.04,0.16-0.06,0.25c4.03,0,8.06,0.07,12.09-0.02c4.29-0.1,8.58-0.36,12.86-0.53c2.96-0.12,3.9,0.79,4.12,3.8
				c0.29,3.99-0.48,7.9-0.87,11.83c-1.74,17.91-3.37,35.82-2.17,53.85c0.38,5.72,0.27,5.82-5.53,5.42
				c-5.76-0.4-11.51-1.33-17.28-0.43c-5.32,0.83-10.62,1.06-16.01,0.74c-7.17-0.43-14.26-1.47-21.37-2.36
				c-10.55-1.32-21.08-2.68-31.1-3.06C596.15,429.62,598,427.2,600.12,425.04z M768.78,578.9c-0.2,8.56-0.47,17.19-2.72,25.53
				c-2.42,9-7.77,15.45-16.91,18.47c-8.45,2.8-17.1,2.58-25.72,1.68c-15.57-1.62-31.01-4.27-46.7-5.06
				c-12.33-0.62-24.67-1.83-36.8-4.35c-9.16-1.91-18.13-4.56-26.8-8.13c-2.91-1.19-5.79-2.45-9.27-3.93
				c4.03,5.83,9.7,8.28,15.85,11.15c-6.57,1.06-12.12,2.65-15.74,8.63c2.9-1.14,5.33-2.24,7.85-3.07
				c7.68-2.54,15.47-1.82,23.24-0.52c11.93,2,23.57,5.36,35.43,7.64c11.62,2.24,23.42,2.73,35.23,2.54
				c10.48-0.17,20.96-0.56,31.44-0.69c5.98-0.07,11.6,1.19,15.87,5.89c2.94,3.23,3.69,7.27,4.09,11.39
				c0.47,4.84,0.03,9.66,0.13,14.51c0,2.59-0.83,5.07-1.24,7.6c-0.43,2.71-0.96,5.41-1.56,8.09c-0.32,1.39-0.66,2.79-1.29,4.06
				c-1.48,3-4.77,4.49-7.5,6.15c-3.35,2.04-6.68,4.11-9.89,6.36c-5.11,3.59-10.81,5.28-16.83,5.49c-9.08,0.32-18.13,0.93-27.19,1.43
				c-6.94,0.38-13.84-0.56-20.77-0.86c-7.5-0.33-14.97-1.07-22.43-1.91c-6.7-0.75-13.37-1.81-19.95-3.35
				c-0.63-0.15-1.23-0.49-1.88,0.11c3.62,2.33,7.62,3.51,11.88,4.34c-1.92,1.71-4.69,1.72-6.51,3.95
				c12.67-2.07,24.95-0.94,37.25,0.57c14.97,1.83,29.93,4.32,45.09,2.8c4.58-0.46,9.2-0.65,13.75-1.53c4.42-0.85,7.77,1.05,9.7,5.33
				c3.7,8.21,4.12,16.71,1.92,25.35c-3.58,14.02-12.94,23.48-24.8,30.84c-7,4.34-14.52,7.61-22.41,9.96
				c-11.36,3.38-22.69,3.51-34-0.45c-9.12-3.2-17.28-8.2-25.5-13.1c-6.69-3.99-13.47-7.81-20.53-11.11
				c-0.2-0.09-0.48-0.01-1.38-0.01c11.06,6.88,20.66,14.89,31.44,21.19c0.76,0.45,1.52,0.9,2.71,1.61
				c-1.44-0.37-2.41-0.62-3.39-0.87c-9.56-3.64-19.1-7.36-28.37-11.68c-10.52-4.9-21.67-8.48-31.57-14.65
				c-12.35-7.7-22.25-17.88-29.26-30.67c-2.49-4.55-4.18-9.39-3.96-14.82c0.29-7.09,4.06-11.36,10.18-14.2
				c2.79-1.3,5.8-1.75,8.68-2.71c0.85-0.29,2.1-0.23,2.16-1.27c0.07-1.1-1.15-1.54-2.05-1.8c-3.79-1.09-7.63-2-11.42-3.1
				c-11.61-3.39-22.87-7.45-31.68-16.29c-5.52-5.53-8.35-12.35-9.72-19.91c-1.23-6.74-1.38-13.49,0.11-20.17
				c2.26-10.16,6.81-17.76,19-19.52c1.54-0.22,3.1-0.5,4.57-1c2.46-0.83,2.85-2.5,1.1-4.46c-0.75-0.84-1.67-1.54-2.54-2.26
				c-7.59-6.27-12.07-14.31-13.94-23.94c-1.45-7.46-2.47-14.94-2.5-22.57c-0.03-8.4,2.42-16.23,5.24-23.96
				c2.48-6.8,5.72-13.19,11.24-18.14c1.2-1.07,1.14-2.07,0.27-3.44c-2.85-4.5-5.13-9.3-4.51-14.8c2.01-17.99,9.41-32.6,26.01-41.58
				c12.52-6.77,26.06-8.29,39.91-8.24c9.65,0.03,19.27,0.94,28.92,2.44c-7.06,1.85-14.28,3.18-21.04,6.39
				c0.87,0.89,1.71,0.46,2.45,0.37c20.57-2.63,41.21-4.2,61.96-3.65c15.2,0.4,30.3,1.92,44.96,6.11
				c11.78,3.37,22.94,8.22,31.5,17.47c7.71,8.33,12.39,17.91,11.05,29.64c-0.3,2.6-0.81,5.23-1.61,7.72
				c-1.58,4.92-1.75,10.06-2.66,15.08c-1.53,8.43-5,15.53-12.78,19.9c-0.07,0.04-0.14,0.09-0.21,0.13
				c-0.35,0.24-0.69,0.52-1.04,0.74c-0.43,0.27-0.97,0.44-1.43,0.64c-0.49,0.22-0.99,0.44-1.49,0.63c-2.93,1.1-6.03,1.25-9.12,1.39
				c-13.68,0.63-26.51-2.76-38.96-8.08c-5.28-2.26-10.72-4.1-16.38-5.22c-7.24-1.44-14.58-1.43-21.93-1.64
				c-9.96-0.28-19.22-3.12-27.83-8.17c-1.3-0.76-2.43-2.1-4.54-2.08c2.67,3.13,5.61,5.47,8.93,8.36c-1.93,0.21-3.29,0.27-4.62,0.51
				c-4.67,0.86-8.69,2.85-11.53,6.8c0.61,0.19,1.06-0.14,1.58-0.39c7.19-3.59,14.59-4.99,22.31-1.81c2.22,0.91,4.5,1.58,6.8,2.14
				c7.59,1.85,15.35,2.02,23.1,2.13c4.09,0.06,8.04,0.83,11.87,2.03c9.47,2.97,18.89,6.07,28.27,9.33c6.61,2.3,13.33,2.8,20.21,2.11
				c0.87-0.09,1.74-0.33,2.61-0.49c0.99-0.18,1.98-0.36,2.97-0.55c1.66-0.31,3.24-0.9,4.92-1.11c0.39-0.05,0.78-0.06,1.18-0.08
				c1.35-0.04,2.69-0.09,4.04,0c2.78,0.18,5.48,0.97,8.05,2.01c2.98,1.2,5.78,2.83,8.27,4.86c2.41,1.98,4.51,4.33,6.19,6.96
				c1.72,2.69,3,5.64,3.83,8.72C768.5,572.09,768.86,575.5,768.78,578.9z"/>
			<path class="st4" d="M667.05,612.5c-7.26-18.12-2.61-48.52,6.74-62.46c-1.81,10.26-3.63,20.52-4.94,30.86
				C667.54,591.36,666.36,601.84,667.05,612.5z"/>
			<path class="st4" d="M668.59,451.91c-5.8,21.19-10.18,42.56-9.52,64.8c-1.07-0.24-1.32-0.92-1.43-1.76
				c-1.13-8.53-1.12-17.06-0.36-25.63c0.59-6.57,1.61-13.05,3.35-19.4C662.38,463.56,664.53,457.34,668.59,451.91z"/>
			<path class="st4" d="M749.43,478.76c6.99,29.58,1.96,33.74-3.88,50.53c-0.19-5.5-1.01-11.01,0.59-16.48
				c1.89-6.5,3.45-13.01,2.31-19.94c-0.65-3.98-0.15-8.08,0.09-12.12C748.57,480.08,748.68,479.45,749.43,478.76z"/>
			<path class="st4" d="M682.82,635.67c0.32,2.85-0.23,4.91-0.54,7c-2.18,14.68-2.35,29.4-0.74,44.15c0.15,1.38,0.53,2.74,0.83,4.11
				c0.09,0.43,0.63,0.95-0.17,1.17c-0.7,0.19-0.68-0.47-0.89-0.9c-1.47-2.9-2.14-6.08-2.7-9.21c-1.76-9.77-2.44-19.62-0.94-29.52
				C678.52,646.85,679.96,641.42,682.82,635.67z"/>
			<path class="st4" d="M678.3,712.21c-1.28,18.54-1.4,37,2.09,55.48C675.4,761.79,671.67,727.06,678.3,712.21z"/>
			<path class="st4" d="M759.13,562.49c5.84,17.4,5.44,34.14-4.94,49.83C759.75,596.1,759.25,579.27,759.13,562.49z"/>
			<path class="st4" d="M674.97,681.71c-2.94-15.46-3.03-30.87,1.59-46.13C674.84,650.91,673.91,666.26,674.97,681.71z"/>
			<path class="st4" d="M672.12,599.24c-1.96-14.53-0.43-28.53,6.32-41.74C675.86,571.35,672.81,585.11,672.12,599.24z"/>
			<path class="st4" d="M753.51,660.03c0.11-1.28,0.12-2.57,0.06-3.9c-0.21-4.63-1.55-9.11-2.9-13.51
				c-0.65-2.14-0.45-4.63-2.27-6.73c0,2.25-0.03,4.15,0,6.04c0.15,8.99,0.67,17.98,0.09,26.97c-0.74,3.9-1.58,10.48-1.18,13.69
				c0.57-4.08,3.44-7.22,4.16-11.21c0.1-0.54,0.19-1.08,0.29-1.61c0.45-2.4,0.91-4.81,1.38-7.21
				C753.32,661.71,753.43,660.87,753.51,660.03z"/>
			<path class="st4" d="M681.56,367.07c-7.83,11.39-49.82,18.27-59.76,9.74c10.41,0.01,20.53,0.27,30.55-1.34
				C662.31,373.87,671.89,370.82,681.56,367.07z"/>
		</g>
	</g>
	<path class="st4" d="M640,200.5c172.04,0,311.5,139.46,311.5,311.5S812.04,823.5,640,823.5S328.5,684.04,328.5,512
		S467.96,200.5,640,200.5 M640,192.5c-43.13,0-84.97,8.45-124.37,25.11c-38.05,16.09-72.21,39.13-101.55,68.47
		c-29.34,29.34-52.38,63.51-68.47,101.55C328.95,427.03,320.5,468.87,320.5,512s8.45,84.97,25.11,124.37
		c16.09,38.05,39.13,72.21,68.47,101.55c29.34,29.34,63.51,52.38,101.55,68.47c39.39,16.66,81.24,25.11,124.37,25.11
		s84.97-8.45,124.37-25.11c38.05-16.09,72.21-39.13,101.55-68.47c29.34-29.34,52.38-63.51,68.47-101.55
		c16.66-39.39,25.11-81.24,25.11-124.37s-8.45-84.97-25.11-124.37c-16.09-38.05-39.13-72.21-68.47-101.55
		c-29.34-29.34-63.51-52.38-101.55-68.47C724.97,200.95,683.13,192.5,640,192.5L640,192.5z"/>
</g>
<g>
	<circle class="st5" cx="1940" cy="512" r="311.5"/>
	<path class="st1" d="M1882.3,554.21c0.02,0.11,0.03,0.22,0.05,0.33c-0.04-0.06-0.09-0.11-0.14-0.16
		C1882.21,554.38,1882.3,554.21,1882.3,554.21z"/>
	<path class="st6" d="M2026.17,287.17c4.68,5.04,8.09,10.84,9.87,17.53c1.14,4.27,1.91,8.63,2.85,12.96
		c0.87,4.01,1.25,8.11,2.39,12.07c1.64,5.69,3.44,11.23,9.34,14.07c0.08,0.27,0.16,0.53,0.24,0.8c4.35,2.79,7.81,6.53,11.19,10.36
		c0.58,0.66,0.97,1.53,1.88,1.88c1.98,3.59,4.25,7,6,10.74c2.87,6.13,4.45,12.58,4.97,19.24c0.55,6.93,0.15,13.84-2.26,20.51
		c-0.42,1.17-4.63,10.59-5.27,10.96c-0.81,0.47-2.34,2.82-2.99,3.81c-0.58,0.9-1.98,3.65-2.75,4.83c-2.34,3.6-1.26,7.11-0.1,10.82
		c1.91,6.12,3.82,12.23,5.16,18.53c0.99,4.67,1.9,9.35,2.48,14.08c1.25,10.15-0.22,19.9-4.98,29.01c-2.09,4.01-4.23,8.04-6.8,11.74
		c-3.3,4.76-3.84,9.68-2.6,15.19c1.94,8.65,0.12,16.94-2.72,25.17c-2.97,8.62-7.26,16.38-13.65,22.88
		c-6.89,7.01-15.26,11.58-24.71,14.23c-5,1.4-10.01,2.61-15.21,3.07c-1.73,0.15-2.9,1.79-4.26,2.83
		c-6.42,4.91-12.67,10.02-17.41,16.66c-3.03,4.24-4.7,9.02-4.91,14.25c-0.29,7.2,0.79,14.29,1.78,21.4
		c1.02,7.33,1.75,14.71,2.72,22.05c1.21,9.14,2.72,18.24,3.78,27.4c1.09,9.4,1.88,18.84,2.25,28.32c0.28,7.19-0.09,14.35-0.78,21.45
		c-0.62,6.35-2.03,12.66-4.64,18.6c-0.42,0.97-0.65,2.02-0.97,3.03c-2.19,1.53-2.87,4.16-4.53,6.11
		c-5.13,6.01-11.37,9.93-19.25,11.07c-4.24,0.62-8.5,0.79-12.77,0.54c-8-0.68-14.76-4-20.45-9.58c-0.01,0.01,18.15,18.2,46.6,46.68
		c159.86-13.04,285.57-146.78,285.82-309.95L2026.17,287.17z"/>
	<g>
		<path class="st3" d="M1979.88,598.96c-4.5,4.58-8.39,9.58-10.57,15.66c-1.81,5.05-1.72,10.37-1.26,15.66
			c0.47,5.36,0.54,10.72,0.39,16.08c-0.14,4.73-1.77,6.2-6.42,5.86c-2.24-0.16-4.51-0.18-6.64,0.36c-2.11,0.53-3.98,1.87-6.16,2.97
			c1.56,0,3.12,0.01,4.68,0c3.63-0.04,7.26-0.22,10.85,0.54c3.18,0.67,4.81,2.46,5.2,5.67c1.39,11.29,3.17,22.54,4.12,33.86
			c1.21,14.53,2.63,29.08,0.59,43.71c-1.14,8.18-2.43,16.23-6.16,23.69c-4.89,9.8-12.48,15.44-23.72,15.9
			c-12.44,0.51-21.07-5.06-26.93-15.78c-6.68-12.23-11.16-25.27-15.08-38.58c-3.6-12.22-6.18-24.7-9.94-36.87
			c-0.75-2.43-1.11-4.98-1.56-7.49c-0.93-5.13,1.42-8.73,5.59-11.27c5.56-3.38,11.79-4.87,18.11-6.07c1.77-0.34,3.53-0.68,5.3-1.02
			c0.02-0.08,0.04-0.16,0.06-0.25c-4.03,0-8.06-0.07-12.09,0.02c-4.29,0.1-8.58,0.36-12.86,0.53c-2.96,0.12-3.9-0.79-4.12-3.8
			c-0.29-3.99,0.48-7.9,0.87-11.83c1.74-17.91,3.37-35.82,2.17-53.85c-0.38-5.72-0.27-5.82,5.53-5.42
			c5.76,0.4,11.51,1.33,17.28,0.43c5.32-0.83,10.62-1.06,16.01-0.74c7.17,0.43,14.26,1.47,21.37,2.36
			c10.55,1.32,21.08,2.68,31.1,3.06C1983.85,594.38,1982,596.8,1979.88,598.96z"/>
		<path class="st3" d="M1811.22,445.1c0.2-8.56,0.47-17.19,2.72-25.53c2.42-9,7.77-15.45,16.91-18.47c8.45-2.8,17.1-2.58,25.72-1.68
			c15.57,1.62,31.01,4.27,46.7,5.06c12.33,0.62,24.67,1.83,36.8,4.35c9.16,1.91,18.13,4.56,26.81,8.13
			c2.91,1.19,5.79,2.45,9.27,3.93c-4.03-5.83-9.7-8.28-15.85-11.15c6.57-1.06,12.12-2.65,15.74-8.63c-2.9,1.14-5.33,2.24-7.85,3.07
			c-7.68,2.54-15.47,1.82-23.24,0.52c-11.93-2-23.57-5.36-35.43-7.64c-11.62-2.24-23.42-2.73-35.23-2.54
			c-10.48,0.17-20.96,0.56-31.44,0.69c-5.98,0.07-11.6-1.19-15.87-5.89c-2.94-3.23-3.69-7.27-4.09-11.39
			c-0.47-4.84-0.03-9.66-0.13-14.51c0-2.59,0.83-5.07,1.24-7.6c0.43-2.71,0.96-5.41,1.56-8.09c0.32-1.39,0.66-2.79,1.29-4.06
			c1.48-3,4.77-4.49,7.5-6.15c3.35-2.04,6.68-4.11,9.89-6.36c5.11-3.59,10.81-5.28,16.83-5.49c9.08-0.32,18.13-0.93,27.19-1.43
			c6.94-0.38,13.84,0.56,20.77,0.86c7.5,0.33,14.97,1.07,22.43,1.91c6.7,0.75,13.37,1.81,19.95,3.35c0.63,0.15,1.23,0.49,1.88-0.11
			c-3.62-2.33-7.62-3.51-11.88-4.34c1.92-1.71,4.69-1.72,6.51-3.95c-12.67,2.07-24.95,0.94-37.25-0.57
			c-14.97-1.83-29.93-4.32-45.09-2.8c-4.58,0.46-9.2,0.65-13.75,1.53c-4.42,0.85-7.77-1.05-9.7-5.33
			c-3.7-8.21-4.12-16.71-1.92-25.35c3.58-14.02,12.94-23.48,24.8-30.84c7-4.34,14.52-7.61,22.41-9.96c11.36-3.38,22.69-3.51,34,0.45
			c9.12,3.2,17.28,8.2,25.5,13.1c6.69,3.99,13.47,7.81,20.53,11.11c0.2,0.09,0.48,0.01,1.38,0.01
			c-11.06-6.88-20.66-14.89-31.44-21.19c-0.76-0.45-1.52-0.9-2.71-1.61c1.44,0.37,2.41,0.62,3.39,0.87
			c9.56,3.64,19.1,7.36,28.37,11.68c10.52,4.9,21.67,8.48,31.57,14.65c12.35,7.7,22.25,17.87,29.26,30.67
			c2.49,4.55,4.18,9.39,3.96,14.82c-0.29,7.09-4.06,11.36-10.18,14.2c-2.79,1.3-5.8,1.75-8.68,2.71c-0.85,0.29-2.1,0.23-2.16,1.27
			c-0.07,1.1,1.15,1.54,2.05,1.8c3.79,1.09,7.64,2,11.42,3.1c11.61,3.39,22.87,7.45,31.68,16.29c5.52,5.53,8.35,12.35,9.72,19.91
			c1.23,6.74,1.38,13.49-0.11,20.17c-2.26,10.16-6.81,17.76-19,19.52c-1.54,0.22-3.1,0.5-4.57,1c-2.46,0.83-2.85,2.5-1.1,4.46
			c0.75,0.84,1.67,1.54,2.54,2.26c7.59,6.27,12.07,14.31,13.94,23.94c1.45,7.46,2.47,14.94,2.5,22.57
			c0.03,8.4-2.42,16.23-5.24,23.96c-2.48,6.8-5.72,13.19-11.24,18.14c-1.2,1.07-1.14,2.07-0.27,3.44c2.85,4.5,5.13,9.3,4.51,14.8
			c-2.01,17.99-9.41,32.6-26.01,41.58c-12.52,6.77-26.06,8.29-39.91,8.24c-9.65-0.03-19.27-0.94-28.92-2.44
			c7.06-1.85,14.28-3.18,21.04-6.39c-0.87-0.89-1.71-0.46-2.45-0.37c-20.57,2.63-41.21,4.2-61.96,3.65
			c-15.2-0.4-30.3-1.92-44.96-6.11c-11.78-3.37-22.94-8.22-31.5-17.47c-7.71-8.33-12.39-17.91-11.05-29.64
			c0.3-2.6,0.81-5.23,1.61-7.72c1.58-4.92,1.75-10.06,2.66-15.08c1.53-8.43,5-15.53,12.78-19.9c0.07-0.04,0.14-0.09,0.21-0.13
			c0.35-0.24,0.69-0.52,1.04-0.74c0.43-0.27,0.97-0.44,1.43-0.64c0.49-0.22,0.99-0.44,1.49-0.63c2.93-1.1,6.03-1.25,9.12-1.39
			c13.68-0.63,26.51,2.76,38.96,8.08c5.28,2.26,10.72,4.1,16.38,5.22c7.24,1.44,14.58,1.43,21.93,1.64
			c9.96,0.28,19.22,3.12,27.83,8.17c1.3,0.76,2.43,2.1,4.54,2.08c-2.67-3.13-5.61-5.47-8.93-8.36c1.93-0.21,3.29-0.27,4.62-0.51
			c4.67-0.86,8.69-2.85,11.53-6.8c-0.61-0.19-1.06,0.14-1.58,0.39c-7.19,3.59-14.58,4.99-22.31,1.81c-2.22-0.91-4.5-1.58-6.8-2.14
			c-7.59-1.85-15.35-2.02-23.1-2.13c-4.09-0.06-8.04-0.83-11.87-2.03c-9.47-2.97-18.89-6.07-28.27-9.33
			c-6.61-2.3-13.33-2.8-20.21-2.11c-0.87,0.09-1.74,0.33-2.61,0.49c-0.99,0.18-1.98,0.36-2.97,0.55c-1.66,0.31-3.24,0.9-4.92,1.11
			c-0.39,0.05-0.78,0.06-1.18,0.08c-1.35,0.04-2.69,0.09-4.04,0c-2.78-0.18-5.48-0.97-8.05-2.01c-2.98-1.2-5.78-2.83-8.27-4.86
			c-2.41-1.98-4.51-4.33-6.19-6.96c-1.72-2.69-3-5.64-3.83-8.72C1811.5,451.91,1811.14,448.5,1811.22,445.1z"/>
		<g>
			<path class="st4" d="M1968.64,491c-0.02,0.03-0.04,0.05-0.06,0.08c0,0,0.01,0,0.01,0L1968.64,491z"/>
			<path class="st4" d="M1804.91,449.82c0.1,6.72,2.66,12.54,6.44,17.81c4.36,6.07,9.9,10.97,16.48,14.6
				c1.42,0.79,1.74,1.1,0.27,2.44c-4.99,4.54-8.63,9.89-8.83,16.99c-0.22,7.91-1.36,15.67-3.1,23.43
				c-2.67,11.93,0.06,22.86,7.78,32.45c8.19,10.18,19.33,15.91,31.16,20.46c9.79,3.76,20.02,5.94,30.37,7.54
				c1.38,0.21,2.03,0.93,2.14,2.26c0.14,1.64,0.38,3.27,0.45,4.92c0.74,15.85-0.35,31.66-1.64,47.42
				c-0.98,11.94-1.74,23.82-0.8,35.77c0.86,10.95,3.31,21.6,6,32.2c1.64,6.46,3.37,12.89,5.25,19.29c2.09,7.1,4.46,14.08,6.98,21.03
				c1.2,3.3,3.18,6.31,3.72,9.85c2.02,2.34,3.16,5.15,4.27,7.97c1.83,1.91,2.76,4.44,4.4,6.48c0.88,0.96,1.72,1.96,2.65,2.88
				c5.72,5.66,12.52,9.02,20.59,9.71c4.28,0.25,8.53,0.07,12.77-0.54c7.88-1.15,14.12-5.07,19.25-11.07
				c1.66-1.95,2.35-4.58,4.53-6.11c0.32-1.01,0.54-2.06,0.97-3.03c2.61-5.94,4.02-12.25,4.64-18.6c0.69-7.1,1.06-14.26,0.78-21.45
				c-0.37-9.48-1.16-18.91-2.25-28.32c-1.06-9.15-2.57-18.26-3.78-27.4c-0.97-7.34-1.7-14.72-2.72-22.05
				c-0.98-7.11-2.07-14.19-1.78-21.4c0.21-5.23,1.89-10.01,4.91-14.25c4.74-6.64,10.99-11.75,17.41-16.66
				c1.36-1.04,2.54-2.68,4.26-2.83c5.2-0.46,10.22-1.67,15.21-3.07c9.45-2.65,17.82-7.22,24.71-14.23
				c6.38-6.5,10.67-14.26,13.65-22.88c2.84-8.24,4.65-16.52,2.72-25.17c-1.23-5.51-0.7-10.43,2.6-15.19
				c2.57-3.71,4.71-7.73,6.8-11.74c4.76-9.11,6.23-18.86,4.98-29.01c-0.58-4.73-1.49-9.41-2.48-14.08
				c-1.34-6.3-3.26-12.41-5.16-18.53c-1.16-3.71-2.24-7.22,0.1-10.82c0.77-1.18,2.17-3.93,2.75-4.83c0.64-1,2.18-3.34,2.99-3.81
				c0.63-0.37,4.84-9.79,5.27-10.96c2.41-6.67,2.81-13.58,2.26-20.51c-0.52-6.66-2.1-13.11-4.97-19.24c-1.75-3.74-4.02-7.15-6-10.74
				c-0.91-0.34-1.3-1.21-1.88-1.88c-3.38-3.83-6.84-7.57-11.19-10.36c-0.08-0.27-0.16-0.53-0.24-0.8c-5.9-2.84-7.7-8.38-9.34-14.07
				c-1.14-3.96-1.53-8.06-2.39-12.07c-0.94-4.32-1.72-8.69-2.85-12.96c-1.88-7.08-5.58-13.19-10.69-18.43
				c-4.53-3.81-9.45-7.04-14.63-9.89c-0.63-0.35-1.13-0.93-1.69-1.4c-0.86,0.06-1.54-0.36-2.28-0.75c-6.8-3.6-13.8-6.77-20.85-9.84
				c-8.2-3.57-16.59-6.66-24.99-9.71c-6.55-2.37-13.17-4.52-19.77-6.77c-2.24-0.82-4.63-1.2-6.76-2.35
				c-3.2-0.34-6.17-1.58-9.25-2.39c-7.35-1.92-14.4-5.24-22.28-4.52c-3.18,0.33-6.37,0.66-9.55,1c-0.47,0.13-0.94,0.3-1.42,0.4
				c-10.04,2.04-19.4,5.78-28.19,11.03c-6.34,3.78-12.03,8.35-17.26,13.54c-1.23,1.44-2.46,2.88-3.69,4.32
				c-1.21,1.74-2.4,3.5-3.65,5.2c-2.49,3.39-3.7,7.43-5.77,11.03c-1.59,5.43-1.88,10.98-1.68,16.59c0.26,7.11,2.9,13.41,6.35,19.46
				c2.08,3.65,2.09,3.65-1.82,5.65c-1.36,1.32-3.07,2.12-4.67,3.07c-4.29,2.54-8,5.57-9.82,10.45c-0.6,1.62-1.3,3.14-1.71,4.79
				c-0.04,0.16-0.1,0.32-0.15,0.48c-1.06,3-1.74,6-2.27,9.13c-0.45,2.61-1.04,5.46-0.73,8.12c-0.04,0.19-0.07,0.4-0.1,0.64
				c-0.6,4.62-0.33,9.24-0.44,13.86c0.82,3.13,0.77,6.43,2.01,9.51c0.69,1.73,2.4,2.88,2.52,4.85c1.02,0.82,2.06,1.62,3.05,2.47
				c2.55,2.19,2.55,2.2-0.32,3.85c-0.93,0.53-1.86,1.05-2.8,1.57c-6.99,3.85-10.96,9.92-12.86,17.52
				C1805.17,427.92,1804.75,438.83,1804.91,449.82z M1979.88,598.96c-4.5,4.58-8.39,9.58-10.57,15.66
				c-1.81,5.05-1.72,10.37-1.26,15.66c0.47,5.36,0.54,10.72,0.39,16.08c-0.14,4.73-1.77,6.2-6.42,5.86
				c-2.24-0.16-4.51-0.18-6.64,0.36c-2.11,0.53-3.98,1.87-6.16,2.97c1.56,0,3.12,0.01,4.68,0c3.63-0.04,7.26-0.22,10.85,0.54
				c3.18,0.67,4.81,2.46,5.2,5.67c1.39,11.29,3.17,22.54,4.12,33.86c1.21,14.53,2.63,29.08,0.59,43.71
				c-1.14,8.18-2.43,16.23-6.16,23.69c-4.89,9.8-12.48,15.44-23.72,15.9c-12.44,0.51-21.07-5.06-26.93-15.78
				c-6.68-12.23-11.16-25.27-15.08-38.58c-3.6-12.22-6.18-24.7-9.94-36.87c-0.75-2.43-1.11-4.98-1.56-7.49
				c-0.93-5.13,1.42-8.73,5.59-11.27c5.56-3.38,11.79-4.87,18.11-6.07c1.77-0.34,3.53-0.68,5.3-1.02c0.02-0.08,0.04-0.16,0.06-0.25
				c-4.03,0-8.06-0.07-12.09,0.02c-4.29,0.1-8.58,0.36-12.86,0.53c-2.96,0.12-3.9-0.79-4.12-3.8c-0.29-3.99,0.48-7.9,0.87-11.83
				c1.74-17.91,3.37-35.82,2.17-53.85c-0.38-5.72-0.27-5.82,5.53-5.42c5.76,0.4,11.51,1.33,17.28,0.43
				c5.32-0.83,10.62-1.06,16.01-0.74c7.17,0.43,14.26,1.47,21.37,2.36c10.55,1.32,21.08,2.68,31.1,3.06
				C1983.85,594.38,1982,596.8,1979.88,598.96z M1811.22,445.1c0.2-8.56,0.47-17.19,2.72-25.53c2.42-9,7.77-15.45,16.91-18.47
				c8.45-2.8,17.1-2.58,25.72-1.68c15.57,1.62,31.01,4.27,46.7,5.06c12.33,0.62,24.67,1.83,36.8,4.35
				c9.16,1.91,18.13,4.56,26.81,8.13c2.91,1.19,5.79,2.45,9.27,3.93c-4.03-5.83-9.7-8.28-15.85-11.15
				c6.57-1.06,12.12-2.65,15.74-8.63c-2.9,1.14-5.33,2.24-7.85,3.07c-7.68,2.54-15.47,1.82-23.24,0.52
				c-11.93-2-23.57-5.36-35.43-7.64c-11.62-2.24-23.42-2.73-35.23-2.54c-10.48,0.17-20.96,0.56-31.44,0.69
				c-5.98,0.07-11.6-1.19-15.87-5.89c-2.94-3.23-3.69-7.27-4.09-11.39c-0.47-4.84-0.03-9.66-0.13-14.51c0-2.59,0.83-5.07,1.24-7.6
				c0.43-2.71,0.96-5.41,1.56-8.09c0.32-1.39,0.66-2.79,1.29-4.06c1.48-3,4.77-4.49,7.5-6.15c3.35-2.04,6.68-4.11,9.89-6.36
				c5.11-3.59,10.81-5.28,16.83-5.49c9.08-0.32,18.13-0.93,27.19-1.43c6.94-0.38,13.84,0.56,20.77,0.86
				c7.5,0.33,14.97,1.07,22.43,1.91c6.7,0.75,13.37,1.81,19.95,3.35c0.63,0.15,1.23,0.49,1.88-0.11c-3.62-2.33-7.62-3.51-11.88-4.34
				c1.92-1.71,4.69-1.72,6.51-3.95c-12.67,2.07-24.95,0.94-37.25-0.57c-14.97-1.83-29.93-4.32-45.09-2.8
				c-4.58,0.46-9.2,0.65-13.75,1.53c-4.42,0.85-7.77-1.05-9.7-5.33c-3.7-8.21-4.12-16.71-1.92-25.35
				c3.58-14.02,12.94-23.48,24.8-30.84c7-4.34,14.52-7.61,22.41-9.96c11.36-3.38,22.69-3.51,34,0.45c9.12,3.2,17.28,8.2,25.5,13.1
				c6.69,3.99,13.47,7.81,20.53,11.11c0.2,0.09,0.48,0.01,1.38,0.01c-11.06-6.88-20.66-14.89-31.44-21.19
				c-0.76-0.45-1.52-0.9-2.71-1.61c1.44,0.37,2.41,0.62,3.39,0.87c9.56,3.64,19.1,7.36,28.37,11.68
				c10.52,4.9,21.67,8.48,31.57,14.65c12.35,7.7,22.25,17.87,29.26,30.67c2.49,4.55,4.18,9.39,3.96,14.82
				c-0.29,7.09-4.06,11.36-10.18,14.2c-2.79,1.3-5.8,1.75-8.68,2.71c-0.85,0.29-2.1,0.23-2.16,1.27c-0.07,1.1,1.15,1.54,2.05,1.8
				c3.79,1.09,7.64,2,11.42,3.1c11.61,3.39,22.87,7.45,31.68,16.29c5.52,5.53,8.35,12.35,9.72,19.91
				c1.23,6.74,1.38,13.49-0.11,20.17c-2.26,10.16-6.81,17.76-19,19.52c-1.54,0.22-3.1,0.5-4.57,1c-2.46,0.83-2.85,2.5-1.1,4.46
				c0.75,0.84,1.67,1.54,2.54,2.26c7.59,6.27,12.07,14.31,13.94,23.94c1.45,7.46,2.47,14.94,2.5,22.57
				c0.03,8.4-2.42,16.23-5.24,23.96c-2.48,6.8-5.72,13.19-11.24,18.14c-1.2,1.07-1.14,2.07-0.27,3.44c2.85,4.5,5.13,9.3,4.51,14.8
				c-2.01,17.99-9.41,32.6-26.01,41.58c-12.52,6.77-26.06,8.29-39.91,8.24c-9.65-0.03-19.27-0.94-28.92-2.44
				c7.06-1.85,14.28-3.18,21.04-6.39c-0.87-0.89-1.71-0.46-2.45-0.37c-20.57,2.63-41.21,4.2-61.96,3.65
				c-15.2-0.4-30.3-1.92-44.96-6.11c-11.78-3.37-22.94-8.22-31.5-17.47c-7.71-8.33-12.39-17.91-11.05-29.64
				c0.3-2.6,0.81-5.23,1.61-7.72c1.58-4.92,1.75-10.06,2.66-15.08c1.53-8.43,5-15.53,12.78-19.9c0.07-0.04,0.14-0.09,0.21-0.13
				c0.35-0.24,0.69-0.52,1.04-0.74c0.43-0.27,0.97-0.44,1.43-0.64c0.49-0.22,0.99-0.44,1.49-0.63c2.93-1.1,6.03-1.25,9.12-1.39
				c13.68-0.63,26.51,2.76,38.96,8.08c5.28,2.26,10.72,4.1,16.38,5.22c7.24,1.44,14.58,1.43,21.93,1.64
				c9.96,0.28,19.22,3.12,27.83,8.17c1.3,0.76,2.43,2.1,4.54,2.08c-2.67-3.13-5.61-5.47-8.93-8.36c1.93-0.21,3.29-0.27,4.62-0.51
				c4.67-0.86,8.69-2.85,11.53-6.8c-0.61-0.19-1.06,0.14-1.58,0.39c-7.19,3.59-14.58,4.99-22.31,1.81c-2.22-0.91-4.5-1.58-6.8-2.14
				c-7.59-1.85-15.35-2.02-23.1-2.13c-4.09-0.06-8.04-0.83-11.87-2.03c-9.47-2.97-18.89-6.07-28.27-9.33
				c-6.61-2.3-13.33-2.8-20.21-2.11c-0.87,0.09-1.74,0.33-2.61,0.49c-0.99,0.18-1.98,0.36-2.97,0.55c-1.66,0.31-3.24,0.9-4.92,1.11
				c-0.39,0.05-0.78,0.06-1.18,0.08c-1.35,0.04-2.69,0.09-4.04,0c-2.78-0.18-5.48-0.97-8.05-2.01c-2.98-1.2-5.78-2.83-8.27-4.86
				c-2.41-1.98-4.51-4.33-6.19-6.96c-1.72-2.69-3-5.64-3.83-8.72C1811.5,451.91,1811.14,448.5,1811.22,445.1z"/>
			<path class="st4" d="M1912.95,411.5c7.26,18.12,2.61,48.52-6.74,62.46c1.81-10.26,3.63-20.52,4.94-30.86
				C1912.46,432.64,1913.64,422.16,1912.95,411.5z"/>
			<path class="st4" d="M1911.41,572.09c5.8-21.19,10.18-42.56,9.52-64.8c1.07,0.24,1.32,0.92,1.43,1.76
				c1.13,8.53,1.12,17.06,0.36,25.63c-0.59,6.57-1.61,13.05-3.35,19.4C1917.62,560.44,1915.47,566.66,1911.41,572.09z"/>
			<path class="st4" d="M1830.57,545.24c-6.99-29.58-1.96-33.74,3.88-50.53c0.19,5.5,1.01,11.01-0.59,16.48
				c-1.89,6.5-3.45,13.01-2.31,19.94c0.65,3.98,0.15,8.08-0.09,12.12C1831.43,543.92,1831.32,544.55,1830.57,545.24z"/>
			<path class="st4" d="M1897.18,388.33c-0.32-2.85,0.23-4.92,0.54-7c2.18-14.68,2.35-29.4,0.74-44.15
				c-0.15-1.38-0.53-2.74-0.83-4.11c-0.1-0.43-0.63-0.95,0.17-1.17c0.7-0.19,0.68,0.47,0.89,0.9c1.47,2.9,2.14,6.08,2.7,9.21
				c1.76,9.77,2.44,19.62,0.94,29.52C1901.48,377.15,1900.04,382.58,1897.18,388.33z"/>
			<path class="st4" d="M1901.7,311.79c1.28-18.54,1.4-37-2.09-55.48C1904.6,262.21,1908.33,296.94,1901.7,311.79z"/>
			<path class="st4" d="M1820.87,461.51c-5.84-17.4-5.44-34.14,4.94-49.83C1820.25,427.9,1820.75,444.73,1820.87,461.51z"/>
			<path class="st4" d="M1905.03,342.29c2.94,15.46,3.03,30.87-1.59,46.13C1905.16,373.09,1906.09,357.74,1905.03,342.29z"/>
			<path class="st4" d="M1907.88,424.76c1.96,14.53,0.43,28.53-6.32,41.74C1904.14,452.65,1907.19,438.89,1907.88,424.76z"/>
			<path class="st4" d="M1826.49,363.97c-0.11,1.28-0.12,2.57-0.06,3.9c0.21,4.63,1.55,9.11,2.9,13.51
				c0.65,2.14,0.45,4.63,2.27,6.73c0-2.25,0.03-4.15,0-6.04c-0.15-8.99-0.67-17.98-0.09-26.97c0.74-3.9,1.58-10.48,1.18-13.69
				c-0.57,4.08-3.44,7.22-4.16,11.21c-0.1,0.54-0.19,1.08-0.29,1.61c-0.45,2.4-0.91,4.81-1.38,7.21
				C1826.68,362.29,1826.57,363.13,1826.49,363.97z"/>
			<path class="st4" d="M1898.44,656.93c7.83-11.39,49.82-18.27,59.76-9.74c-10.41-0.01-20.53-0.27-30.55,1.34
				C1917.69,650.13,1908.11,653.18,1898.44,656.93z"/>
		</g>
	</g>
	<path class="st4" d="M1940,200.5c172.04,0,311.5,139.46,311.5,311.5S2112.04,823.5,1940,823.5S1628.5,684.04,1628.5,512
		S1767.96,200.5,1940,200.5 M1940,192.5c-43.13,0-84.97,8.45-124.37,25.11c-38.05,16.09-72.21,39.13-101.55,68.47
		c-29.34,29.34-52.38,63.51-68.47,101.55c-16.66,39.39-25.11,81.24-25.11,124.37s8.45,84.97,25.11,124.37
		c16.09,38.05,39.13,72.21,68.47,101.55c29.34,29.34,63.51,52.38,101.55,68.47c39.39,16.66,81.24,25.11,124.37,25.11
		s84.97-8.45,124.37-25.11c38.05-16.09,72.21-39.13,101.55-68.47c29.34-29.34,52.38-63.51,68.47-101.55
		c16.66-39.39,25.11-81.24,25.11-124.37s-8.45-84.97-25.11-124.37c-16.09-38.05-39.13-72.21-68.47-101.55
		c-29.34-29.34-63.51-52.38-101.55-68.47C2024.97,200.95,1983.13,192.5,1940,192.5L1940,192.5z"/>
</g>
</svg>
