<?xml version="1.0" encoding="utf-8"?>
<!-- Generator: Adobe Illustrator 24.1.2, SVG Export Plug-In . SVG Version: 6.00 Build 0)  -->
<svg version="1.1" id="Capa_1" xmlns="http://www.w3.org/2000/svg" xmlns:xlink="http://www.w3.org/1999/xlink" x="0px" y="0px"
	 viewBox="0 0 470 180" style="enable-background:new 0 0 470 180;" xml:space="preserve">
<style type="text/css">
	.st0{fill:#FFC299;}
	.st1{fill:#999999;}
	.st2{fill:#FBE8A5;}
	.st3{fill:#D5EDB9;}
	.st4{fill:#A4E1E9;}
	.st5{fill:#FAC9DC;}
	.st6{fill:#C4BDF3;}
	.st7{clip-path:url(#SVGID_2_);}
	.st8{fill:#6EDDE5;}
	.st9{clip-path:url(#SVGID_4_);}
	.st10{fill:#EF9AC0;}
	.st11{clip-path:url(#SVGID_6_);}
	.st12{fill:#8B83F2;}
	.st13{clip-path:url(#SVGID_8_);fill:#F4D271;}
	.st14{clip-path:url(#SVGID_10_);}
	.st15{fill:#BDE085;}
</style>
<g>
	<g>
		<g>
			<path class="st0" d="M181.09,175.63c-1.96,0-3.66-0.35-5.03-1.04c-1.58-0.79-2.44-2.3-2.56-4.5c-0.29-5.19-0.47-9.93-0.54-14.08
				c-0.03-1.91-0.07-3.68-0.12-5.32c-0.21,0.69-0.44,1.41-0.68,2.17c-0.9,2.78-2,6.41-3.29,10.79l-0.08,0.29l-0.23,0.19
				c-0.72,0.61-1.64,1.1-2.74,1.45c-1.07,0.34-2.32,0.51-3.71,0.51c-1.83,0-3.39-0.24-4.62-0.71c-1.42-0.54-2.35-1.5-2.78-2.85
				c-1.34-4.2-2.43-7.6-3.29-10.2c-0.23-0.69-0.44-1.36-0.65-2.01c-0.04,0.9-0.07,1.76-0.09,2.59c-0.07,2.33-0.12,4.6-0.14,6.75
				c-0.02,2.22-0.07,4.47-0.14,6.69c-0.07,2.24-0.18,4.75-0.32,7.47l-0.03,0.65l-0.6,0.23c-0.68,0.26-1.54,0.48-2.63,0.66
				c-1.06,0.18-2.12,0.26-3.17,0.26c-2.3,0-4.07-0.37-5.4-1.13c-1.5-0.86-2.26-2.38-2.26-4.52l2.09-36.86l0.13-0.21
				c0.48-0.78,1.42-1.55,2.87-2.36c1.45-0.81,3.4-1.2,5.93-1.2c2.69,0,4.85,0.44,6.43,1.31c1.64,0.9,2.85,2.37,3.61,4.36
				c0.43,1.15,0.91,2.49,1.41,3.97c0.5,1.49,1.01,3.02,1.51,4.6c0.5,1.58,0.99,3.15,1.47,4.7l0.49,1.58c0.9-3.09,1.8-6.12,2.69-9.03
				c1.15-3.76,2.22-6.95,3.17-9.49l0.13-0.35l0.33-0.18c0.79-0.42,1.8-0.78,3-1.06c1.19-0.28,2.53-0.42,3.99-0.42
				c2.47,0,4.55,0.38,6.16,1.13c1.78,0.83,2.84,2.08,3.14,3.7c0.19,0.98,0.4,2.49,0.62,4.48c0.22,1.99,0.44,4.22,0.68,6.71
				c0.24,2.49,0.48,5.12,0.72,7.89c0.24,2.77,0.47,5.44,0.68,7.99c0.22,2.56,0.4,4.91,0.54,7.04c0.14,2.14,0.24,3.78,0.29,4.93
				l0.03,0.6l-0.52,0.3c-0.89,0.53-1.84,0.91-2.81,1.15C183.76,175.52,182.57,175.63,181.09,175.63z"/>
			<path class="st1" d="M175.22,130.34c2.34,0,4.25,0.35,5.73,1.04c1.48,0.69,2.34,1.68,2.58,2.97c0.19,0.96,0.39,2.43,0.61,4.41
				c0.22,1.98,0.44,4.22,0.68,6.7c0.24,2.49,0.48,5.11,0.72,7.88c0.24,2.77,0.47,5.44,0.68,7.99c0.22,2.56,0.39,4.9,0.54,7.02
				c0.14,2.13,0.24,3.76,0.29,4.91c-0.81,0.48-1.66,0.82-2.54,1.04c-0.88,0.21-2.02,0.32-3.4,0.32c-1.82,0-3.34-0.31-4.59-0.93
				c-1.24-0.62-1.91-1.84-2.01-3.65c-0.29-5.21-0.47-9.89-0.54-14.05c-0.07-4.16-0.18-7.64-0.32-10.46h-0.36
				c-0.48,1.86-1.17,4.2-2.08,7.02c-0.91,2.82-2.01,6.43-3.3,10.82c-0.62,0.53-1.42,0.94-2.4,1.25c-0.98,0.31-2.11,0.46-3.4,0.46
				c-1.72,0-3.14-0.21-4.26-0.64c-1.12-0.43-1.85-1.17-2.19-2.22c-1.34-4.2-2.44-7.61-3.3-10.21c-0.86-2.6-1.53-4.88-2.01-6.84
				h-0.36c-0.14,2.82-0.25,5.39-0.32,7.7c-0.07,2.32-0.12,4.58-0.14,6.77c-0.02,2.2-0.07,4.42-0.14,6.66
				c-0.07,2.25-0.18,4.73-0.32,7.45c-0.62,0.24-1.43,0.44-2.44,0.61c-1,0.17-2.01,0.25-3.01,0.25c-2.1,0-3.74-0.33-4.91-1
				c-1.17-0.67-1.76-1.89-1.76-3.66l2.08-36.55c0.38-0.62,1.22-1.29,2.51-2.01c1.29-0.72,3.1-1.08,5.45-1.08
				c2.53,0,4.51,0.39,5.95,1.18s2.48,2.07,3.15,3.83c0.43,1.15,0.9,2.46,1.4,3.94c0.5,1.48,1,3.01,1.5,4.59
				c0.5,1.58,0.99,3.14,1.47,4.69c0.48,1.55,0.91,2.95,1.29,4.19h0.36c1.15-4.01,2.29-7.89,3.44-11.64c1.15-3.75,2.2-6.89,3.15-9.42
				c0.72-0.38,1.64-0.7,2.76-0.97C172.58,130.48,173.83,130.34,175.22,130.34 M175.22,128.34c-1.53,0-2.95,0.15-4.22,0.45
				c-1.3,0.3-2.36,0.68-3.24,1.15l-0.66,0.35l-0.27,0.7c-0.96,2.55-2.04,5.77-3.19,9.55c-0.58,1.91-1.17,3.86-1.76,5.85
				c-0.32-1.03-0.65-2.07-0.98-3.12c-0.5-1.58-1.01-3.14-1.52-4.62c-0.51-1.5-0.98-2.84-1.42-4c-0.84-2.22-2.21-3.87-4.06-4.88
				c-1.75-0.96-4.01-1.43-6.91-1.43c-2.71,0-4.81,0.43-6.42,1.33c-1.63,0.91-2.66,1.77-3.24,2.71l-0.27,0.43l-0.03,0.5l-2.08,36.55
				l0,0.06v0.06c0,3.15,1.5,4.67,2.76,5.39c1.49,0.85,3.42,1.27,5.9,1.27c1.11,0,2.23-0.09,3.34-0.28c1.16-0.19,2.08-0.43,2.83-0.72
				l1.21-0.47l0.07-1.29c0.14-2.72,0.25-5.25,0.32-7.49c0.07-2.22,0.12-4.48,0.14-6.71c0.01-1.16,0.03-2.36,0.06-3.58
				c0.63,1.96,1.36,4.21,2.16,6.74c0.52,1.63,1.68,2.84,3.38,3.48c1.36,0.52,2.99,0.78,4.98,0.78c1.49,0,2.84-0.19,4.01-0.56
				c1.23-0.39,2.27-0.94,3.09-1.64l0.46-0.39l0.17-0.58c0.79-2.68,1.51-5.08,2.15-7.17c0.08,3.98,0.26,8.48,0.53,13.38
				c0.17,3.21,1.78,4.67,3.11,5.33c1.52,0.76,3.36,1.14,5.48,1.14c1.56,0,2.83-0.12,3.88-0.38c1.07-0.26,2.11-0.68,3.08-1.26
				l1.04-0.61l-0.05-1.2c-0.05-1.19-0.15-2.86-0.29-4.96c-0.15-2.16-0.33-4.53-0.54-7.06c-0.21-2.56-0.44-5.22-0.68-7.99
				c-0.25-2.87-0.48-5.46-0.72-7.9c-0.25-2.58-0.47-4.78-0.68-6.72c-0.22-2.05-0.43-3.55-0.64-4.58c-0.25-1.32-1.09-3.17-3.69-4.39
				C180.05,128.76,177.84,128.34,175.22,128.34L175.22,128.34z"/>
		</g>
		<g>
			<path class="st0" d="M211.12,176.2c-2.6,0-4.98-0.25-7.07-0.74c-2.13-0.5-4-1.27-5.55-2.29c-1.59-1.04-2.84-2.4-3.7-4.02
				c-0.86-1.62-1.3-3.51-1.3-5.63c0-3.58,1.1-6.38,3.27-8.34c2.11-1.9,5.36-3.1,9.67-3.55l8.47-0.91c-0.09-0.78-0.49-1.31-1.25-1.68
				c-1.07-0.53-2.7-0.79-4.83-0.79c-1.73,0-3.44,0.18-5.09,0.55c-1.66,0.37-3.17,0.83-4.49,1.38l-0.5,0.21l-0.45-0.31
				c-0.76-0.53-1.4-1.32-1.91-2.36c-0.49-1.02-0.75-2.09-0.75-3.2c0-1.47,0.38-2.68,1.12-3.6c0.7-0.87,1.76-1.6,3.15-2.19
				c1.48-0.56,3.21-0.97,5.17-1.22c1.92-0.24,3.76-0.37,5.47-0.37c2.65,0,5.1,0.28,7.3,0.82c2.24,0.56,4.19,1.42,5.79,2.56
				c1.63,1.17,2.91,2.67,3.79,4.46c0.88,1.78,1.32,3.89,1.32,6.28v16.05c0,1.49-0.43,2.73-1.29,3.71c-0.76,0.86-1.67,1.62-2.71,2.24
				C221.5,175.21,216.91,176.2,211.12,176.2z M210.91,161.08c-1.2,0.09-2.17,0.33-2.89,0.74c-0.54,0.3-0.77,0.68-0.77,1.28
				c0,0.65,0.23,1.14,0.74,1.55c0.38,0.31,1.23,0.67,3.14,0.67c0.76,0,1.6-0.08,2.52-0.24c0.61-0.11,1.05-0.22,1.35-0.33v-4.01
				L210.91,161.08z"/>
			<path class="st1" d="M210.55,138.16c2.58,0,4.93,0.26,7.06,0.79c2.13,0.53,3.94,1.33,5.45,2.4s2.66,2.44,3.48,4.08
				c0.81,1.65,1.22,3.59,1.22,5.84v16.05c0,1.24-0.35,2.26-1.04,3.05c-0.69,0.79-1.52,1.47-2.47,2.04
				c-3.11,1.86-7.48,2.79-13.11,2.79c-2.53,0-4.81-0.24-6.84-0.72c-2.03-0.48-3.77-1.19-5.23-2.15c-1.46-0.96-2.58-2.17-3.37-3.66
				c-0.79-1.48-1.18-3.2-1.18-5.16c0-3.3,0.98-5.83,2.94-7.6c1.96-1.77,4.99-2.87,9.1-3.3l9.39-1v-0.5c0-1.38-0.61-2.38-1.83-2.97
				c-1.22-0.6-2.97-0.9-5.27-0.9c-1.82,0-3.58,0.19-5.3,0.57c-1.72,0.38-3.27,0.86-4.66,1.43c-0.62-0.43-1.15-1.09-1.58-1.97
				c-0.43-0.88-0.65-1.8-0.65-2.76c0-1.24,0.3-2.23,0.9-2.97c0.6-0.74,1.52-1.37,2.76-1.9c1.38-0.53,3.02-0.91,4.91-1.15
				C207.09,138.27,208.87,138.16,210.55,138.16 M211.12,166.32c0.81,0,1.71-0.08,2.69-0.25c0.98-0.17,1.71-0.39,2.19-0.68v-5.73
				l-5.16,0.43c-1.34,0.1-2.44,0.38-3.3,0.86c-0.86,0.48-1.29,1.2-1.29,2.15c0,0.96,0.37,1.73,1.11,2.33
				C208.1,166.02,209.35,166.32,211.12,166.32 M210.55,136.16c-1.75,0-3.63,0.13-5.59,0.37c-2.04,0.26-3.84,0.68-5.37,1.26
				l-0.03,0.01l-0.03,0.01c-1.54,0.65-2.73,1.49-3.54,2.49c-0.89,1.1-1.34,2.52-1.34,4.23c0,1.26,0.29,2.48,0.85,3.63
				c0.58,1.19,1.33,2.11,2.24,2.74l0.9,0.62l1.01-0.42c1.27-0.52,2.72-0.97,4.33-1.33c1.57-0.35,3.21-0.53,4.87-0.53
				c2.37,0,3.65,0.35,4.31,0.66l-6.82,0.73c-4.51,0.47-7.96,1.75-10.23,3.8c-2.39,2.15-3.6,5.21-3.6,9.08c0,2.28,0.48,4.34,1.42,6.1
				c0.94,1.77,2.3,3.25,4.04,4.39c1.65,1.08,3.62,1.9,5.87,2.42c2.17,0.51,4.63,0.77,7.3,0.77c5.98,0,10.74-1.04,14.14-3.08
				c1.13-0.68,2.12-1.5,2.95-2.44c1.02-1.16,1.54-2.63,1.54-4.37v-16.05c0-2.54-0.48-4.81-1.43-6.72c-0.96-1.94-2.34-3.56-4.11-4.83
				c-1.7-1.22-3.76-2.13-6.13-2.71C215.81,136.44,213.27,136.16,210.55,136.16L210.55,136.16z M211.12,164.32
				c-1.85,0-2.41-0.38-2.51-0.45c-0.27-0.22-0.37-0.42-0.37-0.77c0-0.19,0-0.26,0.26-0.4c0.6-0.33,1.43-0.54,2.47-0.61l3.02-0.25
				v2.17c-0.15,0.03-0.32,0.07-0.52,0.1C212.61,164.24,211.82,164.32,211.12,164.32L211.12,164.32z"/>
		</g>
		<g>
			<path class="st0" d="M250.6,176.13c-4.43,0-7.91-1.04-10.36-3.1c-2.49-2.1-3.76-5.49-3.76-10.08v-31.44l0.74-0.2
				c0.56-0.15,1.33-0.31,2.35-0.49c1.03-0.18,2.14-0.26,3.29-0.26c2.28,0,4.12,0.43,5.44,1.26c1.47,0.93,2.22,2.8,2.22,5.54v3.59
				h8.98l0.28,0.52c0.32,0.58,0.61,1.28,0.89,2.13c0.3,0.89,0.45,1.88,0.45,2.93c0,1.94-0.47,3.4-1.4,4.33
				c-0.93,0.93-2.17,1.4-3.68,1.4h-5.52v9.82c0,1.33,0.55,1.7,0.74,1.82c0.62,0.41,1.55,0.62,2.78,0.62c0.66,0,1.36-0.06,2.07-0.17
				c0.7-0.11,1.32-0.25,1.85-0.43l0.65-0.22l0.44,0.53c0.48,0.58,0.89,1.24,1.24,1.96c0.38,0.78,0.57,1.71,0.57,2.76
				c0,2.11-0.81,3.87-2.4,5.21C256.89,175.49,254.32,176.13,250.6,176.13z"/>
			<path class="st1" d="M242.86,131.56c2.1,0,3.74,0.37,4.91,1.11c1.17,0.74,1.76,2.31,1.76,4.69v4.59h9.39
				c0.29,0.53,0.56,1.18,0.82,1.97c0.26,0.79,0.39,1.66,0.39,2.62c0,1.67-0.37,2.88-1.11,3.62c-0.74,0.74-1.73,1.11-2.97,1.11h-6.52
				v10.82c0,1.24,0.39,2.13,1.18,2.65c0.79,0.53,1.9,0.79,3.33,0.79c0.72,0,1.46-0.06,2.22-0.18c0.76-0.12,1.43-0.27,2.01-0.47
				c0.43,0.53,0.8,1.11,1.11,1.76c0.31,0.65,0.47,1.42,0.47,2.33c0,1.82-0.68,3.3-2.04,4.44c-1.36,1.15-3.76,1.72-7.2,1.72
				c-4.21,0-7.44-0.96-9.71-2.87c-2.27-1.91-3.4-5.02-3.4-9.32v-30.67c0.53-0.14,1.28-0.3,2.26-0.47
				C240.72,131.65,241.76,131.56,242.86,131.56 M242.86,129.56c-1.2,0-2.36,0.09-3.45,0.28c-1.06,0.18-1.86,0.35-2.45,0.51
				l-1.48,0.4v1.53v30.67c0,4.9,1.38,8.55,4.12,10.85c2.63,2.21,6.33,3.34,11,3.34c3.96,0,6.74-0.72,8.49-2.19
				c1.8-1.52,2.75-3.58,2.75-5.97c0-1.2-0.22-2.28-0.66-3.2c-0.38-0.79-0.84-1.51-1.36-2.15l-0.87-1.07l-1.31,0.44
				c-0.47,0.16-1.04,0.29-1.68,0.39c-0.66,0.1-1.3,0.16-1.91,0.16c-1.28,0-1.91-0.25-2.22-0.45c-0.19-0.13-0.29-0.46-0.29-0.99
				v-8.82h4.52c1.79,0,3.26-0.57,4.39-1.7c1.13-1.13,1.7-2.82,1.7-5.03c0-1.16-0.17-2.26-0.5-3.25c-0.3-0.91-0.62-1.66-0.97-2.3
				l-0.57-1.04h-1.19h-7.39v-2.59c0-3.11-0.9-5.25-2.69-6.38C247.33,130.03,245.37,129.56,242.86,129.56L242.86,129.56z"/>
		</g>
		<g>
			<path class="st0" d="M286.15,176.13c-3.11,0-5.97-0.47-8.51-1.39c-2.55-0.92-4.77-2.25-6.61-3.93c-1.84-1.69-3.29-3.75-4.29-6.11
				c-1-2.36-1.51-5-1.51-7.84c0-3.28,0.55-6.2,1.62-8.68c1.08-2.49,2.58-4.58,4.45-6.2c1.86-1.61,4.04-2.83,6.47-3.63
				c2.41-0.79,4.99-1.2,7.66-1.2c3.62,0,6.49,0.68,8.51,2.03c2.15,1.43,3.24,3.33,3.24,5.63c0,1.07-0.26,2.09-0.77,3.02
				c-0.47,0.87-1.04,1.63-1.67,2.27l-0.5,0.5l-0.64-0.3c-0.77-0.36-1.71-0.72-2.81-1.06c-1.05-0.33-2.2-0.49-3.43-0.49
				c-1.07,0-2.11,0.17-3.07,0.52c-0.94,0.33-1.76,0.83-2.45,1.47c-0.69,0.65-1.25,1.46-1.67,2.43c-0.42,0.97-0.63,2.14-0.63,3.47
				c0,2.68,0.72,4.62,2.2,5.91c1.52,1.33,3.33,1.97,5.54,1.97c1.32,0,2.48-0.15,3.42-0.46c1.01-0.32,1.91-0.67,2.67-1.03l0.53-0.25
				l0.48,0.33c1.07,0.75,1.88,1.58,2.43,2.49c0.57,0.95,0.86,2.07,0.86,3.35c0,2.33-1.11,4.16-3.29,5.42
				C292.38,175.54,289.6,176.13,286.15,176.13z"/>
			<path class="st1" d="M285.43,138.16c3.44,0,6.09,0.62,7.96,1.86c1.86,1.24,2.79,2.84,2.79,4.8c0,0.91-0.21,1.76-0.65,2.54
				c-0.43,0.79-0.93,1.47-1.5,2.04c-0.81-0.38-1.79-0.75-2.94-1.11c-1.15-0.36-2.39-0.54-3.73-0.54c-1.2,0-2.33,0.19-3.4,0.57
				c-1.08,0.38-2.01,0.94-2.79,1.68c-0.79,0.74-1.42,1.66-1.9,2.76c-0.48,1.1-0.72,2.39-0.72,3.87c0,2.96,0.85,5.18,2.54,6.66
				c1.7,1.48,3.76,2.22,6.2,2.22c1.43,0,2.67-0.17,3.73-0.5c1.05-0.33,1.98-0.69,2.79-1.08c0.96,0.67,1.67,1.4,2.15,2.19
				c0.48,0.79,0.71,1.73,0.71,2.83c0,1.96-0.93,3.48-2.79,4.55c-1.86,1.07-4.44,1.61-7.74,1.61c-3.01,0-5.73-0.44-8.17-1.33
				c-2.44-0.88-4.53-2.13-6.27-3.73c-1.74-1.6-3.09-3.52-4.05-5.77c-0.96-2.25-1.43-4.73-1.43-7.45c0-3.15,0.51-5.91,1.54-8.28
				c1.03-2.36,2.42-4.31,4.19-5.84c1.77-1.53,3.81-2.67,6.13-3.44C280.4,138.54,282.85,138.16,285.43,138.16 M285.43,136.16
				c-2.78,0-5.46,0.42-7.97,1.25c-2.56,0.84-4.85,2.13-6.81,3.83c-1.99,1.72-3.57,3.92-4.72,6.56c-1.13,2.61-1.71,5.66-1.71,9.07
				c0,2.98,0.54,5.76,1.59,8.24c1.06,2.5,2.59,4.67,4.54,6.46c1.93,1.77,4.26,3.16,6.94,4.13c2.65,0.96,5.62,1.45,8.85,1.45
				c3.69,0,6.54-0.61,8.74-1.88c2.48-1.43,3.8-3.61,3.8-6.28c0-1.46-0.34-2.76-1-3.87c-0.62-1.02-1.53-1.96-2.71-2.79l-0.95-0.67
				l-1.05,0.5c-0.72,0.34-1.58,0.67-2.55,0.98c-0.85,0.27-1.9,0.41-3.12,0.41c-1.96,0-3.55-0.57-4.88-1.73
				c-1.25-1.09-1.86-2.78-1.86-5.16c0-1.2,0.19-2.23,0.55-3.07c0.37-0.84,0.85-1.55,1.43-2.1c0.59-0.55,1.27-0.96,2.1-1.26
				c0.86-0.3,1.78-0.46,2.73-0.46c1.13,0,2.18,0.15,3.13,0.45c1.05,0.33,1.96,0.67,2.68,1.01l1.27,0.6l0.99-1
				c0.71-0.71,1.33-1.55,1.84-2.5c0.59-1.08,0.89-2.26,0.89-3.5c0-2.62-1.27-4.86-3.68-6.47
				C292.3,136.89,289.25,136.16,285.43,136.16L285.43,136.16z"/>
		</g>
		<g>
			<path class="st0" d="M333.87,175.63c-1.11,0-2.11-0.08-3-0.23c-0.99-0.17-1.85-0.52-2.54-1.05c-0.72-0.54-1.27-1.27-1.65-2.17
				c-0.37-0.87-0.54-1.94-0.54-3.29v-15.91c0-1.63-0.37-2.75-1.1-3.34c-0.8-0.65-1.78-0.96-2.99-0.96c-0.86,0-1.68,0.11-2.46,0.32
				c-0.52,0.14-0.97,0.31-1.34,0.49v25.24l-0.71,0.21c-0.53,0.16-1.32,0.31-2.4,0.46c-1.07,0.15-2.19,0.22-3.33,0.22
				c-1.11,0-2.11-0.08-3-0.23c-0.99-0.17-1.85-0.52-2.54-1.05c-0.72-0.54-1.27-1.27-1.65-2.17c-0.37-0.87-0.54-1.94-0.54-3.29v-42.4
				l0.82-0.15c0.53-0.09,1.31-0.23,2.34-0.4c1.08-0.17,2.18-0.26,3.28-0.26c1.1,0,2.11,0.08,3,0.23c0.99,0.17,1.85,0.52,2.54,1.04
				c0.71,0.54,1.27,1.26,1.65,2.17c0.37,0.87,0.54,1.95,0.54,3.29v5.65c0.46-0.13,0.99-0.27,1.59-0.42
				c1.34-0.33,2.83-0.49,4.43-0.49c4.96,0,8.91,1.28,11.74,3.8c2.86,2.55,4.31,6.36,4.31,11.32v22.46l-0.71,0.21
				c-0.53,0.16-1.32,0.31-2.4,0.46C336.13,175.55,335.01,175.63,333.87,175.63z"/>
			<path class="st1" d="M310.51,126.69c1.05,0,1.99,0.07,2.83,0.21c0.83,0.14,1.54,0.43,2.11,0.86c0.57,0.43,1.01,1.02,1.33,1.76
				c0.31,0.74,0.47,1.71,0.47,2.9v7.02c0.62-0.24,1.56-0.51,2.83-0.82c1.26-0.31,2.66-0.46,4.19-0.46c4.73,0,8.42,1.18,11.07,3.55
				c2.65,2.36,3.98,5.89,3.98,10.57v21.71c-0.48,0.14-1.23,0.29-2.26,0.43c-1.03,0.14-2.09,0.21-3.19,0.21c-1.05,0-2-0.07-2.83-0.21
				c-0.84-0.14-1.54-0.43-2.11-0.86c-0.57-0.43-1.02-1.01-1.33-1.75c-0.31-0.74-0.47-1.71-0.47-2.9v-15.91
				c0-1.96-0.49-3.33-1.47-4.12c-0.98-0.79-2.19-1.18-3.62-1.18c-0.96,0-1.86,0.12-2.72,0.36c-0.86,0.24-1.55,0.53-2.08,0.86v25.08
				c-0.48,0.14-1.23,0.29-2.26,0.43c-1.03,0.14-2.09,0.21-3.19,0.21c-1.05,0-2-0.07-2.83-0.21c-0.84-0.14-1.54-0.43-2.11-0.86
				c-0.57-0.43-1.02-1.01-1.33-1.75c-0.31-0.74-0.47-1.71-0.47-2.9v-41.56c0.52-0.09,1.3-0.23,2.33-0.39
				C308.42,126.77,309.46,126.69,310.51,126.69 M310.51,124.69c-1.15,0-2.31,0.09-3.44,0.28c-1.04,0.17-1.83,0.3-2.36,0.4l-1.64,0.3
				v1.67v41.56c0,1.48,0.2,2.68,0.62,3.68c0.44,1.06,1.11,1.93,1.97,2.58c0.82,0.62,1.83,1.03,2.98,1.23
				c0.94,0.16,2.01,0.24,3.17,0.24c1.19,0,2.35-0.08,3.47-0.23c1.14-0.16,1.97-0.32,2.55-0.49l1.43-0.43v-1.49v-23.82
				c0.18-0.06,0.38-0.13,0.61-0.19c0.68-0.19,1.42-0.29,2.19-0.29c0.97,0,1.74,0.24,2.36,0.74c0.47,0.38,0.72,1.29,0.72,2.56v15.91
				c0,1.48,0.2,2.68,0.62,3.68c0.44,1.06,1.11,1.93,1.97,2.58c0.82,0.62,1.83,1.03,2.98,1.23c0.94,0.16,2.01,0.24,3.17,0.24
				c1.19,0,2.35-0.08,3.47-0.23c1.14-0.16,1.97-0.32,2.55-0.49l1.43-0.43v-1.49v-21.71c0-5.26-1.56-9.31-4.65-12.06
				c-3.02-2.69-7.19-4.05-12.4-4.05c-1.68,0-3.25,0.18-4.67,0.52c-0.12,0.03-0.24,0.06-0.36,0.09v-4.34c0-1.48-0.2-2.68-0.62-3.68
				c-0.45-1.07-1.11-1.94-1.97-2.58c-0.83-0.62-1.83-1.03-2.98-1.23C312.74,124.77,311.67,124.69,310.51,124.69L310.51,124.69z"/>
		</g>
	</g>
	<g>
		<path class="st2" d="M34.82,108.66c-1.31,2.25-2.99,4.27-5.08,5.82c-3.88,2.87-9.37,3.84-13.64,1.59
			C9.38,112.53,5,97.26,7.58,90.26c2.59-7.04,11.47-9.37,17.7-11.89c7.93-3.22,15.98-7.05,21.29-14.04
			c2.87-3.78,4.71-8.2,6.86-12.43s4.73-8.41,8.61-11.14c3.88-2.73,9.32-3.69,13.38-1.25c2.69,1.61,4.4,4.42,6.01,7.11
			c1.38,2.3,2.75,4.61,4.13,6.91c1,1.67,2.03,3.48,1.86,5.41c-0.23,2.71-2.72,4.65-5.22,5.72c-8.69,3.73-13.03,17.25-7.51,25.85
			c2.66,4.15,9.44,8.22,13.32,11.15c6.33,4.78,13.39,8.5,19.91,13c1.65,1.14,3.38,2.36,4.24,4.18c0.78,1.65,0.73,3.58,0.43,5.39
			c-1.55,9.22-8.95,16.31-16.69,21.55c-2.41,1.63-4.94,3.17-7.76,3.86s-6,0.43-8.33-1.3c-3.11-2.31-3.98-6.5-4.79-10.28
			c-1.88-8.85-3.76-17.15-9.31-24.48c-5.28-6.99-8.41-14.42-17.84-17c-2.92-0.8-6.49-0.83-8.49,1.45c-1.08,1.24-1.47,2.91-1.94,4.49
			C36.8,104.64,35.95,106.74,34.82,108.66z"/>
		<path class="st3" d="M119.72,30.97c1.22-1.38,3.23-2.97,6.03-4.77c2.8-1.8,5.75-3.21,8.86-4.22c4.43-1.45,8.57-2.09,12.41-1.92
			c3.83,0.17,6.69,1.47,8.57,3.9c3.1,4.09,6.59,8.89,10.45,14.41c4.24,6.04,9.29,11.7,12.57,18.31c2.77,5.58,5.14,10.28,10.34,14.18
			c3.14,2.36,6.76,4.16,9.34,7.12c2.58,2.96,3.78,7.69,1.35,10.76c-0.84,1.06-2.02,1.81-3.19,2.5c-5.51,3.26-20.22,10.85-25.83,4.09
			c-4.37-5.27,1.89-13.13-7.35-10.52c-2.03,0.57-19.52,5.17-19.71,6.42c-0.89,6.04,5.51,9.83,1.98,16.48
			c-0.56,1.05-1.29,2.01-2.08,2.9c-5.32,5.99-13.82,8.97-21.72,7.62c-0.89-0.15-1.8-0.36-2.55-0.86c-2.53-1.66-2.24-5.41-1.51-8.35
			c1.6-6.41,1.27-11.61,1.18-18.25c-0.05-3.91-0.09-8.15-0.1-12.71c-0.02-4.56,0.02-9.26,0.1-14.1c0.09-4.84,0.17-9.41,0.23-13.7
			c0.07-4.29,0.16-8.13,0.29-11.51C119.51,35.36,119.62,32.77,119.72,30.97z M141.3,42.92c-0.03,4.13-0.07,8.74-0.12,13.81
			c-0.06,5.08,0.06,10.17,0.35,15.28l16.5-5.39c-2.81-4.38-5.6-8.65-8.38-12.8c-2.78-4.15-5.3-7.87-7.55-11.16L141.3,42.92z"/>
		<path class="st4" d="M234.41,64.68c-1.36,0.62-1.75,2.07-0.6,5.38c1.41,4.08,3.47,7.27,3.73,11.76c0.25,2.96,0.29,8.89-2.06,10.83
			c-3.25,2.69-10.36,3.55-14.44,3.08c-5.21-0.61-10.22-3.1-13.72-7.03c-1.1-1.23-2.07-2.62-2.56-4.2c-0.4-1.28-0.47-2.63-0.51-3.97
			c-0.18-6.39,0.42-12.8,1.75-19.05c1.25-5.85,3.32-11.01,3.35-17.08c0.04-9.64-0.24-19.29-0.44-28.93
			c-0.04-1.96,0.46-3.49,1.52-4.58c1.05-1.09,2.5-1.99,4.36-2.68c3.15-1.18,6.82-2.08,11.01-2.67c7.96-1.14,15.72-1.11,23.59,0.7
			c5.95,1.37,11.81,3.53,16.68,7.21c3.56,2.69,6.51,6.15,8.92,9.91c2.15,3.36,3.93,7.12,4.06,11.11c0.13,4.14-1.52,8.13-3.61,11.71
			c-1.3,2.23-2.8,4.37-4.55,6.29c-1.42,1.56-4.41,2.99-5.46,4.66c-1.88,2.99,3.88,10.18,6,12.56c3.92,4.41,9.3,6.83,11.98,12.42
			c2.04,4.25,1.75,10.02-1.95,12.95c-2.83,2.25-6.78,2.28-10.39,2.13c-11.19-0.46-16.16-3.93-18.99-14.54
			c-1.8-6.78-6.54-12.51-10.38-18.41C238.59,64.33,235.91,64,234.41,64.68z M242.66,45.28c3.83-0.52,7.53-1.62,10.73-4.02
			c0.99-0.74,1.93-1.6,2.54-2.68c0.91-1.61,1-3.53,1.05-5.38c0.06-2.04,0.08-4.15-0.67-6.05c-1.57-3.95-5.97-5.9-10.06-7.05
			c-1.54-0.44-3.28-0.8-4.68-0.02c-0.54,0.3-0.99,0.76-1.53,1.06c-0.63,0.35-1.35,0.49-2.04,0.67c-3.41,0.91-4.7,1.85-4.63,5.18
			c0.05,2.47,0.11,4.94,0.16,7.42c0.08,3.8,0.15,7.6,0.23,11.4C236.69,45.74,239.72,45.68,242.66,45.28z"/>
		<path class="st5" d="M292.08,54.2c0.85-3.42,2.33-6.67,4.23-9.65c3.3-5.19,7.75-9.54,12.36-13.61c2.64-2.33,5.37-4.6,8.48-6.27
			c6.08-3.26,13.2-3.97,20.1-3.91c3.46,0.03,6.95,0.23,10.31,1.1c12.48,3.21,22.47,12.53,27.8,24.1c2.62,5.68,4.14,11.86,4.43,18.11
			c0.34,7.41-2.56,14.81-5.3,21.59c-0.93,2.3-1.86,4.61-3.17,6.72c-3.37,5.44-8.98,9.13-14.76,11.88
			c-7.04,3.35-14.62,5.56-22.35,6.54c-6.77,0.86-14.18-0.86-20.54-3.3c-7.97-3.05-15.05-10.11-19-17.6
			c-2.56-4.84-4.04-10.27-4.46-16.29c-0.34-4.86,0.86-9.53,1.1-14.31C291.41,57.57,291.67,55.87,292.08,54.2z M350.83,59.98
			c-1.93-6.42-6.02-11.94-12.54-14.55c-15.29-6.1-25.26,17.52-21.42,29.31c4.16,12.76,21.46,26.14,30.95,10.76
			C352.15,78.47,353.36,68.44,350.83,59.98z"/>
		<path class="st6" d="M387.1,66.57c-0.81-1.35-1.42-2.79-1.35-4.34c0.38-7.6,17.76-22.28,24.82-17.66
			c1.89,1.24,3.35,3.01,4.78,4.76c4.3,5.25,8,11.64,12.79,16.4c4.33,4.31,10.41,5.79,15.98,7.93c6.1,2.35,11.86,5.6,17.03,9.61
			c0.67,0.52,1.35,1.07,1.7,1.84c0.32,0.7,0.34,1.5,0.31,2.27c-0.2,6.03-2.65,11.8-5.92,16.87c-2.32,3.6-5.96,7.29-10.19,6.55
			c-7.86-1.38-8.7-12.44-16.96-13.25c-8.11-0.8-11.81,7.06-16.23,12.13c-7.18,8.22-14.61,16.95-16.77,27.65
			c-1.42,7.02-3.52,7.16-9.06,4.36c-6.53-3.3-12.25-7.1-18.23-11.3c-1.88-1.32-3.33-3.52-3.12-5.81c0.09-0.95,0.45-1.85,0.85-2.71
			c4.73-10.11,14.92-15.79,23.36-22.4c5.79-4.54,10.47-11.36,12.91-18.28c3.82-10.85-2.13-10.06-11.37-10.31
			c-0.68-0.02-1.37-0.07-1.98-0.35c-0.91-0.41-1.53-1.26-2.1-2.07C387.93,67.84,387.49,67.22,387.1,66.57z"/>
	</g>
	<g>
		<g>
			<defs>
				<path id="SVGID_1_" d="M234.41,64.68c-1.36,0.62-1.75,2.07-0.6,5.38c1.41,4.08,3.47,7.27,3.73,11.76
					c0.25,2.96,0.29,8.89-2.06,10.83c-3.25,2.69-10.36,3.55-14.44,3.08c-5.21-0.61-10.22-3.1-13.72-7.03
					c-1.1-1.23-2.07-2.62-2.56-4.2c-0.4-1.28-0.47-2.63-0.51-3.97c-0.18-6.39,0.42-12.8,1.75-19.05c1.25-5.85,3.32-11.01,3.35-17.08
					c0.04-9.64-0.24-19.29-0.44-28.93c-0.04-1.96,0.46-3.49,1.52-4.58c1.05-1.09,2.5-1.99,4.36-2.68c3.15-1.18,6.82-2.08,11.01-2.67
					c7.96-1.14,15.72-1.11,23.59,0.7c5.95,1.37,11.81,3.53,16.68,7.21c3.56,2.69,6.51,6.15,8.92,9.91
					c2.15,3.36,3.93,7.12,4.06,11.11c0.13,4.14-1.52,8.13-3.61,11.71c-1.3,2.23-2.8,4.37-4.55,6.29c-1.42,1.56-4.41,2.99-5.46,4.66
					c-1.88,2.99,3.88,10.18,6,12.56c3.92,4.41,9.3,6.83,11.98,12.42c2.04,4.25,1.75,10.02-1.95,12.95
					c-2.83,2.25-6.78,2.28-10.39,2.13c-11.19-0.46-16.16-3.93-18.99-14.54c-1.8-6.78-6.54-12.51-10.38-18.41
					C238.59,64.33,235.91,64,234.41,64.68z M242.66,45.28c3.83-0.52,7.53-1.62,10.73-4.02c0.99-0.74,1.93-1.6,2.54-2.68
					c0.91-1.61,1-3.53,1.05-5.38c0.06-2.04,0.08-4.15-0.67-6.05c-1.57-3.95-5.97-5.9-10.06-7.05c-1.54-0.44-3.28-0.8-4.68-0.02
					c-0.54,0.3-0.99,0.76-1.53,1.06c-0.63,0.35-1.35,0.49-2.04,0.67c-3.41,0.91-4.7,1.85-4.63,5.18c0.05,2.47,0.11,4.94,0.16,7.42
					c0.08,3.8,0.15,7.6,0.23,11.4C236.69,45.74,239.72,45.68,242.66,45.28z"/>
			</defs>
			<clipPath id="SVGID_2_">
				<use xlink:href="#SVGID_1_"  style="overflow:visible;"/>
			</clipPath>
			<g class="st7">
				<path class="st8" d="M261.93,15.94c-4.44,1.15-9.42-0.07-12.82-3.14c-0.74-0.67-1.6-1.47-2.57-1.26
					c-0.75,0.16-1.22,0.87-1.79,1.38c-1.59,1.43-4.07,1.32-6.08,0.57c-2-0.75-3.77-2.04-5.78-2.79c-5.08-1.91-10.75-0.17-15.8,1.81
					c-0.84,0.33-1.8,0.66-2.62,0.28c-1.19-0.57-1.26-2.19-1.73-3.42C211.84,6.97,209,5.8,206.46,6c-2.54,0.2-4.86,1.47-7.09,2.72
					c-1.54,0.86-3.13,1.76-4.19,3.16c-1.07,1.41-1.47,3.47-0.49,4.93c0.88,1.3,2.57,1.78,4.13,1.86c2.57,0.13,5.17-0.59,7.31-2.01
					c-0.07,2.91,2.29,5.35,4.89,6.66s5.53,1.83,8.17,3.03c0.97-1.83,1.95-3.66,2.92-5.48c2.86,3.3,5.11,7.13,6.6,11.23
					c0.74,2.02,1.05,4.79-0.81,5.88c-1.04,0.61-2.85,1.07-2.42,2.2c5.62-2.23,10.55-6.13,16.4-7.64c6.56-1.7,13.48-0.22,20.1,1.27
					c0.11,2.28,2.91,3.49,5.18,3.24c2.27-0.25,4.39-1.39,6.67-1.5c3.13-0.16,6.83,1.46,9.09-0.71c1.32-1.27,1.7-2.83,3.52-3.52
					c0.54-3.61-9.2-4.26-11.94-5.51C269.62,23.56,265.24,20.18,261.93,15.94z"/>
				<path class="st8" d="M272.59,50.68c-5.6-1.47-11.65-1.17-17.07,0.85c-0.73-1.77-1.46-3.53-2.19-5.3
					c-1.85,1.82-3.69,3.64-5.54,5.46c-2.11,2.07-5.5,4.22-7.68,2.22c-0.9-0.83-1.24-2.18-2.25-2.87c-1.97-1.37-4.44,0.68-6.73,1.39
					c-6.89,2.13-12.23-8.28-19.42-7.74c-0.89,0.07-1.77,0.31-2.66,0.29c-3.04-0.05-5.19-2.9-6.83-5.46
					c-2.17,2.28-5.23,3.78-6.69,6.57c-1.85,3.54-0.48,7.84,0.92,11.59c0.22,0.6,0.48,1.24,1.01,1.6c0.83,0.56,1.95,0.21,2.87-0.19
					c3.58-1.57,6.92-3.67,9.87-6.23c-0.7,2.91,2.51,5.97,5.39,5.12c1.16-0.34,2.19-1.17,3.39-1.18c1.92-0.01,3.18,1.97,4.87,2.89
					c4.17,2.28,9.6-2.37,13.91-0.35c-0.31,2.81,3.19,5.22,5.7,3.93c-0.59,1.96,2.22,3.2,4.23,2.86c2.01-0.34,4.28-1.25,5.94-0.07
					c1.15,0.82,1.67,2.49,3.03,2.88c1.26,0.35,2.46-0.6,3.55-1.32c4.35-2.87,9.37-2.14,14.25-2.37
					C275.5,61.6,278.19,52.15,272.59,50.68z"/>
				<path class="st8" d="M277.55,77.85c-0.63,1.83-2.99,2.83-4.75,2c0.23,1.86-1.75,3.39-3.63,3.41c-1.87,0.03-3.59-0.97-5.19-1.94
					c-1.84-1.11-3.68-2.22-5.52-3.33c-0.1,0.85-0.21,1.69-0.31,2.54c-5.53-1.1-11.06-2.21-16.58-3.31
					c-1.11-0.22-2.42-0.39-3.23,0.39c-0.56,0.54-0.79,1.46-1.52,1.72c-0.56,0.2-1.16-0.07-1.69-0.34c-2.7-1.37-5.4-2.75-8.1-4.12
					c0.2,1.47,0.41,2.94,0.61,4.42c-0.44-2.37-3.67-3.01-5.97-2.25s-4.35,2.34-6.76,2.47c-0.23,1.05-0.47,2.11-0.7,3.16
					c-7.56-3.51-14.49-8.34-20.4-14.22c0.04,1.28-1.3,2.18-2.54,2.48s-2.62,0.29-3.69,0.99c-1.3,0.84-1.83,2.51-1.9,4.06
					c-0.1,2.15,0.5,4.33,1.7,6.12c0.88,1.31,2.05,2.41,3.31,3.36c6.27,4.75,14.61,6.16,20.77,11.05c2.48,1.97,4.59,4.48,7.45,5.84
					c2.47,1.18,5.29,1.38,8.02,1.56c5.52,0.37,11.09,0.73,16.55-0.14c6.15-0.98,12.05-3.51,18.27-3.74
					c8.3-0.31,17.22,3.83,25.17-0.14c6.9-3.45,5.11-9.45,1.5-14.88c-0.09,1.66-0.6,3.37-1.85,4.44
					C285.43,88.28,277.12,79.11,277.55,77.85z"/>
			</g>
		</g>
		<g>
			<defs>
				<path id="SVGID_3_" d="M292.08,54.2c0.85-3.42,2.33-6.67,4.23-9.65c3.3-5.19,7.75-9.54,12.36-13.61
					c2.64-2.33,5.37-4.6,8.48-6.27c6.08-3.26,13.2-3.97,20.1-3.91c3.46,0.03,6.95,0.23,10.31,1.1c12.48,3.21,22.47,12.53,27.8,24.1
					c2.62,5.68,4.14,11.86,4.43,18.11c0.34,7.41-2.56,14.81-5.3,21.59c-0.93,2.3-1.86,4.61-3.17,6.72
					c-3.37,5.44-8.98,9.13-14.76,11.88c-7.04,3.35-14.62,5.56-22.35,6.54c-6.77,0.86-14.18-0.86-20.54-3.3
					c-7.97-3.05-15.05-10.11-19-17.6c-2.56-4.84-4.04-10.27-4.46-16.29c-0.34-4.86,0.86-9.53,1.1-14.31
					C291.41,57.57,291.67,55.87,292.08,54.2z M350.83,59.98c-1.93-6.42-6.02-11.94-12.54-14.55c-15.29-6.1-25.26,17.52-21.42,29.31
					c4.16,12.76,21.46,26.14,30.95,10.76C352.15,78.47,353.36,68.44,350.83,59.98z"/>
			</defs>
			<clipPath id="SVGID_4_">
				<use xlink:href="#SVGID_3_"  style="overflow:visible;"/>
			</clipPath>
			<g class="st9">
				<path class="st10" d="M306.24,59.87c8.93-12.67,22.88-21.7,38.1-24.66c-2.43-6.05-5.31-11.93-8.61-17.55
					c-1.63-2.78-3.8-5.79-7.01-6.12c-1.69-0.17-3.35,0.46-4.92,1.11c-5.01,2.07-9.89,4.45-14.61,7.12
					c-2.71,1.53-11.19,5.04-12.28,8.01c-1.21,3.3,3.35,12.3,4.4,15.75C301.98,45.77,307.38,58.26,306.24,59.87z"/>
				<path class="st10" d="M333.34,75.39c10.34,11.28,20.68,22.55,31.02,33.83c0.47,0.51,0.97,1.11,0.94,1.8
					c-0.03,0.79-0.73,1.37-1.36,1.84c-12,8.81-25.23,15.93-39.19,21.09c-1.11,0.41-2.27,0.81-3.44,0.69c-1.3-0.14-2.44-0.9-3.5-1.66
					c-6.09-4.35-11.73-9.33-17.99-13.44c-3.1-2.03-6.31-3.71-9.7-5.19c-4.92-2.13-2.89-2.88,0.94-5.97
					C304.96,97.16,319.06,86.16,333.34,75.39z"/>
				<path class="st10" d="M355.31,60.09c-0.39,0.56-0.8,1.18-0.74,1.86c0.07,0.74,0.68,1.3,1.24,1.78
					c10.72,9.13,21.98,17.63,33.7,25.43c5.72-13.12,9.2-27.21,10.24-41.48c0.17-2.28,0.25-4.68-0.7-6.76
					c-1.95-4.27-7.8-7.19-11.67-9.4c-4.55-2.6-7.01-2.77-10.72,1.13C368.74,40.95,361.89,50.73,355.31,60.09z"/>
			</g>
		</g>
		<g>
			<defs>
				<path id="SVGID_5_" d="M387.1,66.57c-0.81-1.35-1.42-2.79-1.35-4.34c0.38-7.6,17.76-22.28,24.82-17.66
					c1.89,1.24,3.35,3.01,4.78,4.76c4.3,5.25,8,11.64,12.79,16.4c4.33,4.31,10.41,5.79,15.98,7.93c6.1,2.35,11.86,5.6,17.03,9.61
					c0.67,0.52,1.35,1.07,1.7,1.84c0.32,0.7,0.34,1.5,0.31,2.27c-0.2,6.03-2.65,11.8-5.92,16.87c-2.32,3.6-5.96,7.29-10.19,6.55
					c-7.86-1.38-8.7-12.44-16.96-13.25c-8.11-0.8-11.81,7.06-16.23,12.13c-7.18,8.22-14.61,16.95-16.77,27.65
					c-1.42,7.02-3.52,7.16-9.06,4.36c-6.53-3.3-12.25-7.1-18.23-11.3c-1.88-1.32-3.33-3.52-3.12-5.81c0.09-0.95,0.45-1.85,0.85-2.71
					c4.73-10.11,14.92-15.79,23.36-22.4c5.79-4.54,10.47-11.36,12.91-18.28c3.82-10.85-2.13-10.06-11.37-10.31
					c-0.68-0.02-1.37-0.07-1.98-0.35c-0.91-0.41-1.53-1.26-2.1-2.07C387.93,67.84,387.49,67.22,387.1,66.57z"/>
			</defs>
			<clipPath id="SVGID_6_">
				<use xlink:href="#SVGID_5_"  style="overflow:visible;"/>
			</clipPath>
			<g class="st11">
				<g>
					<path class="st12" d="M463.49,124.37c-1.35,0.01-2.43-1.22-2.79-2.53c-0.35-1.3-0.17-2.68-0.11-4.03
						c0.51-12.22-9.64-22.55-10.93-34.71c-0.2-1.87-1.24-18.15-0.62-18.47c3.04-1.6,7.1,8.57,7.56,10.25
						C461,90.82,462.85,107.9,463.49,124.37z"/>
					<path class="st12" d="M443.16,110.28c0.39,2.11,0.75,4.38-0.16,6.32c-0.92,1.94-3.69,3.11-5.28,1.67
						c-1.95-7.66-3.91-15.35-4.61-23.22c-0.48-5.39-0.36-10.83-1.04-16.2c-0.5-3.92-1.43-7.75-2.35-11.59
						c-0.35-1.48-3.01-8.54-2.09-9.81c2.39-3.29,6.48,4.33,7.02,6.28C438.83,78.7,440.36,94.98,443.16,110.28z"/>
					<path class="st12" d="M373.29,131.76c0.54,6.24,1.1,12.56,3.23,18.44c1.69,0.27,3.46,0.01,5-0.74
						c0.77-7.32-1.85-14.52-3.09-21.78c-0.93-5.43-1.09-10.94-1.6-16.41c-0.31-3.25-0.12-8.98-2.42-11.44
						C368.14,105.54,372.69,124.82,373.29,131.76z"/>
					<path class="st12" d="M387.56,112.6c0.47,5.67,1.59,11.27,2.7,16.85c1.26,6.33,2.52,12.66,3.78,18.99
						c0.62,3.11,2.08,6.96,5.25,7c1.11-4.71,1.52-9.58,1.22-14.41c-0.27-4.33-1.11-8.6-1.95-12.85c-1.24-6.29-2.48-12.57-3.72-18.86
						c-0.92-4.64-0.95-14.81-4.25-18.39c-3.18-3.44-4.5,1.31-4.66,4.41C385.62,100.83,387.1,107.06,387.56,112.6z"/>
					<path class="st12" d="M393.3,44.12c3.11,18.92,6.72,37.75,10.34,56.58c0.51,2.67,1.02,5.33,1.54,8
						c0.53,2.78,1.07,5.56,1.64,8.34c1.05,5.06,2.42,10.44,6.27,13.89c2.86-29.99-9.91-59.1-13.43-89.01
						c-0.15-1.26-2.43-2.69-3.69-2.51S394.29,43.32,393.3,44.12z"/>
					<path class="st12" d="M418.94,103.77c0.7,5.65,1.73,11.69,5.73,15.74c1.82-22.96-5.8-45.64-6.44-68.67
						c-0.19-6.67,0.06-13.87-3.77-19.33c-0.58-0.83-1.36-1.65-2.37-1.71c-0.62-0.03-1.21,0.24-1.75,0.54
						c-6.92,3.91-2.91,8.48-0.95,14.43c2.06,6.28,3.53,12.75,4.67,19.26C416.37,77.18,417.3,90.53,418.94,103.77z"/>
				</g>
			</g>
		</g>
		<g>
			<defs>
				<path id="SVGID_7_" d="M34.82,108.66c-1.31,2.25-2.99,4.27-5.08,5.82c-3.88,2.87-9.37,3.84-13.64,1.59
					C9.38,112.53,5,97.26,7.58,90.26c2.59-7.04,11.47-9.37,17.7-11.89c7.93-3.22,15.98-7.05,21.29-14.04
					c2.87-3.78,4.71-8.2,6.86-12.43s4.73-8.41,8.61-11.14c3.88-2.73,9.32-3.69,13.38-1.25c2.69,1.61,4.4,4.42,6.01,7.11
					c1.38,2.3,2.75,4.61,4.13,6.91c1,1.67,2.03,3.48,1.86,5.41c-0.23,2.71-2.72,4.65-5.22,5.72c-8.69,3.73-13.03,17.25-7.51,25.85
					c2.66,4.15,9.44,8.22,13.32,11.15c6.33,4.78,13.39,8.5,19.91,13c1.65,1.14,3.38,2.36,4.24,4.18c0.78,1.65,0.73,3.58,0.43,5.39
					c-1.55,9.22-8.95,16.31-16.69,21.55c-2.41,1.63-4.94,3.17-7.76,3.86s-6,0.43-8.33-1.3c-3.11-2.31-3.98-6.5-4.79-10.28
					c-1.88-8.85-3.76-17.15-9.31-24.48c-5.28-6.99-8.41-14.42-17.84-17c-2.92-0.8-6.49-0.83-8.49,1.45
					c-1.08,1.24-1.47,2.91-1.94,4.49C36.8,104.64,35.95,106.74,34.82,108.66z"/>
			</defs>
			<clipPath id="SVGID_8_">
				<use xlink:href="#SVGID_7_"  style="overflow:visible;"/>
			</clipPath>
			<path class="st13" d="M70.07,20.68c-3.88-0.16-7.65,1.26-11.14,2.95c-3.56,1.72-6.98,3.74-10.21,6.03
				c-2.69,1.91-5.32,4.08-6.94,6.95c-1.62,2.88-2.07,6.61-0.39,9.45c0.54,0.92,1.3,1.75,1.58,2.78c0.37,1.35,0.18,3.31,1.54,3.64
				l0.5-0.92c2.31,10.4,2.57,21.25,0.75,31.74c-0.76,4.37-1.87,8.68-2.38,13.09c-1.33,11.46,1.37,23.6-3.03,34.27l21.35,14.05
				c-1.8-9.14-3.58-18.78-0.62-27.62c1.67-5.01,4.79-9.46,6.27-14.53c0.99-3.4,1.21-6.97,1.5-10.5c1.74-21.15,6.29-42.06,13.5-62.01
				C80.77,24.34,76,20.93,70.07,20.68z"/>
			<path class="st13" d="M8.3,64.35C2.2,65.09-3.1,69.29-6.41,74.47c-3.31,5.19-4.87,11.29-5.92,17.35
				c-0.91,5.26-1.45,10.79,0.31,15.82c3.17,9.05,15.67,15.7,24.35,19.77c0.85-4.31,3.22-8.15,4.49-12.36
				c2.15-7.16,0.94-14.83,0.62-22.3s0.56-15.67,5.8-21.01C21.31,65.92,14.41,63.61,8.3,64.35z"/>
			<path class="st13" d="M141.55,129.83c-0.05-4.81-0.09-9.62-0.14-14.43c-0.03-3.57-0.1-7.28-1.61-10.51
				c-1.52-3.23-4.33-5.66-7.24-7.72c-5.11-3.63-10.88-6.5-17.07-7.43c-6.19-0.93-13.48,0.47-18.48,4.24
				c1.12,4.98-0.49,10.19-2.78,14.76c-2.29,4.57-5.27,8.79-7.18,13.53c-5.47,13.59-1.4,29-2.77,43.59
				c11.63,2.03,24.76-2.42,35.59-7.12c8.04-3.49,16.82-7.71,20.09-15.84C141.62,138.79,141.6,134.25,141.55,129.83z"/>
		</g>
		<g>
			<defs>
				<path id="SVGID_9_" d="M119.72,30.97c1.22-1.38,3.23-2.97,6.03-4.77c2.8-1.8,5.75-3.21,8.86-4.22
					c4.43-1.45,8.57-2.09,12.41-1.92c3.83,0.17,6.69,1.47,8.57,3.9c3.1,4.09,6.59,8.89,10.45,14.41c4.24,6.04,9.29,11.7,12.57,18.31
					c2.77,5.58,5.14,10.28,10.34,14.18c3.14,2.36,6.76,4.16,9.34,7.12c2.58,2.96,3.78,7.69,1.35,10.76
					c-0.84,1.06-2.02,1.81-3.19,2.5c-5.51,3.26-20.22,10.85-25.83,4.09c-4.37-5.27,1.89-13.13-7.35-10.52
					c-2.03,0.57-19.52,5.17-19.71,6.42c-0.89,6.04,5.51,9.83,1.98,16.48c-0.56,1.05-1.29,2.01-2.08,2.9
					c-5.32,5.99-13.82,8.97-21.72,7.62c-0.89-0.15-1.8-0.36-2.55-0.86c-2.53-1.66-2.24-5.41-1.51-8.35
					c1.6-6.41,1.27-11.61,1.18-18.25c-0.05-3.91-0.09-8.15-0.1-12.71c-0.02-4.56,0.02-9.26,0.1-14.1c0.09-4.84,0.17-9.41,0.23-13.7
					c0.07-4.29,0.16-8.13,0.29-11.51C119.51,35.36,119.62,32.77,119.72,30.97z M141.3,42.92c-0.03,4.13-0.07,8.74-0.12,13.81
					c-0.06,5.08,0.06,10.17,0.35,15.28l16.5-5.39c-2.81-4.38-5.6-8.65-8.38-12.8c-2.78-4.15-5.3-7.87-7.55-11.16L141.3,42.92z"/>
			</defs>
			<clipPath id="SVGID_10_">
				<use xlink:href="#SVGID_9_"  style="overflow:visible;"/>
			</clipPath>
			<g class="st14">
				<path class="st15" d="M130.11,21.16c0.86,2.66,0.97,5.49,0.98,8.29c0.02,3.48-0.12,7.03-1.27,10.32
					c-3.01,8.63-12.84,13.71-21.95,12.93c-0.97-0.08-1.96-0.23-2.79-0.74c-0.9-0.55-1.49-1.47-2.04-2.37
					c-3.16-5.2-5.74-11.2-4.79-17.21c0.76-4.79,3.75-9.04,7.53-12.08c3.78-3.04,8.33-4.99,12.94-6.5
					C124.32,11.95,128.42,15.9,130.11,21.16z"/>
				<path class="st15" d="M157.33,35.01c-1.83,3.59-3.01,8.11-0.82,11.49c1.69,2.62,4.9,3.76,7.88,4.68
					c2.07,0.64,4.19,1.26,6.35,1.2c2.16-0.06,4.41-0.9,5.66-2.68c0.87-1.24,1.16-2.8,1.33-4.31c0.25-2.19,0.29-4.4,0.33-6.6
					c0.09-5.15-0.21-16.78-7.77-17.05C164.94,21.55,159.4,30.95,157.33,35.01z"/>
				<path class="st15" d="M119.71,95.86c-2.99,1.05-6.23,1.05-9.39,1.03c-2.78-0.01-5.77-0.1-7.98-1.78
					c-12.32-9.33-8.13-31.87,8.87-30.17C125.79,66.4,137.58,89.55,119.71,95.86z"/>
				<path class="st15" d="M127.61,112.94c0.71,9.33,5.46,21.63,15.7,22.97c7.56,0.99,16.87,0.88,20.95-6.68
					c6.2-11.51-3.61-26-15.02-28.9C138.44,97.59,126.58,99.44,127.61,112.94z"/>
				<path class="st15" d="M150.58,74.79c-2.34,2.67-2.26,6.61-2.04,10.16c0.16,2.61,0.34,5.31,1.56,7.63
					c2.07,3.94,6.6,5.83,10.85,7.15c3.92,1.22,7.91,2.21,11.95,2.96c3.8,0.71,7.89,1.17,11.39-0.47c4.59-2.15,6.99-7.61,6.64-12.67
					c-0.34-5.06-2.97-9.7-6.19-13.62c-4.14-5.03-9.96-9.38-16.63-7.93C163.31,69.04,153.9,71.01,150.58,74.79z"/>
			</g>
		</g>
	</g>
	<g>
		<g>
			<path class="st1" d="M70.11,38.11c1.86,0,3.69,0.43,5.3,1.4c2.69,1.61,4.4,4.42,6.01,7.11c1.38,2.3,2.75,4.61,4.13,6.91
				c1,1.67,2.03,3.48,1.86,5.41c-0.23,2.71-2.72,4.65-5.22,5.72c-8.69,3.73-13.03,17.25-7.51,25.85c2.66,4.15,9.44,8.22,13.32,11.15
				c6.33,4.78,13.39,8.5,19.91,13c1.65,1.14,3.38,2.36,4.24,4.18c0.78,1.65,0.73,3.58,0.43,5.39c-1.55,9.22-8.95,16.31-16.69,21.55
				c-2.41,1.63-4.94,3.17-7.76,3.86c-0.94,0.23-1.92,0.36-2.9,0.36c-1.95,0-3.88-0.5-5.43-1.65c-3.11-2.31-3.98-6.5-4.79-10.28
				c-1.88-8.85-3.76-17.15-9.31-24.48c-5.28-6.99-8.41-14.42-17.84-17c-1.1-0.3-2.3-0.49-3.47-0.49c-1.93,0-3.78,0.52-5.02,1.94
				c-1.08,1.24-1.47,2.91-1.94,4.49c-0.63,2.13-1.49,4.23-2.61,6.15c-1.31,2.25-2.99,4.27-5.08,5.82c-2.41,1.78-5.45,2.83-8.42,2.83
				c-1.81,0-3.6-0.39-5.22-1.24C9.38,112.53,5,97.26,7.58,90.26c2.59-7.04,11.47-9.37,17.7-11.89c7.93-3.22,15.98-7.05,21.29-14.04
				c2.87-3.78,4.71-8.2,6.86-12.43c2.15-4.23,4.73-8.41,8.61-11.14C64.37,39.12,67.28,38.11,70.11,38.11 M70.11,36.11
				c-3.19,0-6.47,1.07-9.23,3.02c-4.4,3.1-7.14,7.74-9.24,11.87c-0.5,0.99-0.98,1.98-1.47,2.98c-1.6,3.29-3.11,6.4-5.2,9.15
				c-5.16,6.8-13.26,10.48-20.45,13.4c-0.88,0.36-1.81,0.71-2.8,1.08C15.72,79.87,8.23,82.7,5.7,89.57
				c-2.84,7.7,1.75,24.2,9.47,28.27c1.85,0.98,3.92,1.47,6.15,1.47c3.38,0,6.79-1.15,9.61-3.22c2.19-1.62,4.09-3.78,5.62-6.42
				c1.14-1.96,2.09-4.18,2.8-6.59l0.16-0.55c0.36-1.25,0.7-2.42,1.36-3.18c0.73-0.84,1.91-1.26,3.51-1.26
				c0.91,0,1.93,0.15,2.94,0.42c6.8,1.86,9.99,6.52,13.68,11.91c0.98,1.43,1.98,2.9,3.09,4.36c5.44,7.2,7.22,15.58,8.95,23.69
				l0.01,0.07c0.86,4.06,1.84,8.66,5.53,11.41c1.8,1.34,4.09,2.05,6.63,2.05c1.12,0,2.26-0.14,3.37-0.41
				c3.13-0.77,5.89-2.45,8.4-4.15c10.26-6.93,16.16-14.63,17.54-22.87c0.44-2.64,0.25-4.79-0.59-6.57c-1.11-2.35-3.22-3.8-4.91-4.97
				c-2.81-1.94-5.75-3.75-8.59-5.51c-3.78-2.33-7.68-4.75-11.25-7.44c-0.93-0.7-2-1.45-3.13-2.25c-3.51-2.46-7.87-5.53-9.71-8.38
				c-2.27-3.54-2.76-8.47-1.31-13.19c1.4-4.57,4.37-8.21,7.93-9.73c3.82-1.64,6.16-4.33,6.43-7.39c0.23-2.65-1.14-4.94-2.13-6.61
				l-3.73-6.25l-0.4-0.66c-1.57-2.62-3.52-5.89-6.7-7.8C74.6,36.7,72.42,36.11,70.11,36.11L70.11,36.11z"/>
		</g>
		<g>
			<path class="st1" d="M145.79,20.03c0.41,0,0.81,0.01,1.21,0.03c3.83,0.17,6.69,1.47,8.57,3.9c3.1,4.09,6.59,8.89,10.45,14.41
				c4.24,6.04,9.29,11.7,12.57,18.31c2.77,5.58,5.14,10.28,10.34,14.18c3.14,2.36,6.76,4.16,9.34,7.12
				c2.58,2.96,3.78,7.69,1.35,10.76c-0.84,1.06-2.02,1.81-3.19,2.5c-3.91,2.31-12.45,6.81-19.09,6.81c-2.72,0-5.11-0.75-6.74-2.72
				c-3.77-4.55,0.38-11.04-4.37-11.04c-0.75,0-1.72,0.16-2.98,0.52c-2.03,0.57-19.52,5.17-19.71,6.42
				c-0.89,6.04,5.51,9.83,1.98,16.48c-0.56,1.05-1.29,2.01-2.08,2.9c-4.47,5.03-11.19,7.94-17.9,7.94c-1.28,0-2.55-0.1-3.81-0.32
				c-0.89-0.15-1.8-0.36-2.55-0.86c-2.53-1.66-2.24-5.41-1.51-8.35c1.6-6.41,1.27-11.61,1.18-18.25c-0.05-3.91-0.09-8.15-0.1-12.71
				c-0.02-4.56,0.02-9.26,0.1-14.1c0.09-4.84,0.17-9.41,0.23-13.7c0.07-4.29,0.16-8.13,0.29-11.51c0.12-3.38,0.23-5.97,0.33-7.77
				c1.22-1.38,3.23-2.97,6.03-4.77c2.8-1.8,5.75-3.21,8.86-4.22C138.57,20.68,142.3,20.03,145.79,20.03 M141.53,72l16.5-5.39
				c-2.81-4.38-5.6-8.65-8.38-12.8c-2.78-4.15-5.3-7.87-7.55-11.16l-0.8,0.26c-0.03,4.13-0.07,8.74-0.12,13.81
				C141.11,61.81,141.23,66.9,141.53,72 M145.79,18.03L145.79,18.03c-3.69,0-7.67,0.69-11.82,2.05c-3.25,1.06-6.39,2.56-9.32,4.44
				c-2.98,1.91-5.09,3.59-6.44,5.13l-0.46,0.52l-0.04,0.69c-0.1,1.8-0.21,4.35-0.33,7.81c-0.12,3.34-0.22,7.22-0.29,11.55
				c-0.07,4.29-0.15,8.86-0.23,13.7c-0.09,4.79-0.12,9.55-0.1,14.14c0.02,4.58,0.05,8.86,0.1,12.73c0.01,0.82,0.02,1.61,0.04,2.39
				c0.1,5.57,0.18,9.97-1.16,15.34c-1.59,6.37,0.4,9.23,2.36,10.51c1.08,0.71,2.28,0.98,3.31,1.16c1.36,0.23,2.75,0.35,4.15,0.35
				c7.35,0,14.61-3.22,19.4-8.61c1.01-1.13,1.78-2.21,2.35-3.29c2.48-4.67,0.87-8.36-0.42-11.33c-0.77-1.77-1.44-3.32-1.42-5.02
				c1.34-0.62,5.36-2.03,16.98-5.19c0.64-0.17,1.11-0.3,1.35-0.37c1.04-0.29,1.86-0.44,2.44-0.44c0.2,0,0.33,0.02,0.39,0.03
				c0.15,0.38,0.16,1.46,0.16,2.2c0.02,2.28,0.05,5.4,2.27,8.08c1.89,2.28,4.68,3.44,8.28,3.44c7.33,0,16.5-4.96,20.11-7.09
				c1.31-0.78,2.68-1.65,3.74-2.98c3.15-3.98,1.63-9.83-1.41-13.32c-1.93-2.21-4.31-3.79-6.62-5.32c-1.06-0.7-2.07-1.37-3.03-2.09
				c-4.88-3.67-7.14-8.21-9.75-13.47c-2.35-4.74-5.58-8.99-8.69-13.11c-1.35-1.78-2.75-3.63-4.03-5.46
				c-3.85-5.49-7.38-10.36-10.5-14.47c-2.26-2.92-5.64-4.49-10.07-4.69C146.66,18.04,146.23,18.03,145.79,18.03L145.79,18.03z
				 M143.39,69.29c-0.19-4.19-0.26-8.39-0.22-12.54c0.04-3.09,0.06-6.04,0.09-8.84c1.46,2.15,3.02,4.47,4.72,7.01
				c2.32,3.46,4.65,7.01,6.96,10.59L143.39,69.29L143.39,69.29z"/>
		</g>
		<g>
			<path class="st1" d="M236.16,4.8c4.41,0,8.8,0.45,13.22,1.47c5.95,1.37,11.81,3.53,16.68,7.21c3.56,2.69,6.51,6.15,8.92,9.91
				c2.15,3.36,3.93,7.12,4.06,11.11c0.13,4.14-1.52,8.13-3.61,11.71c-1.3,2.23-2.8,4.37-4.55,6.29c-1.42,1.56-4.41,2.99-5.46,4.66
				c-1.88,2.99,3.88,10.18,6,12.56c3.92,4.41,9.3,6.83,11.98,12.42c2.04,4.25,1.75,10.02-1.95,12.95c-2.28,1.81-5.28,2.18-8.25,2.18
				c-0.72,0-1.44-0.02-2.14-0.05c-11.19-0.46-16.16-3.93-18.99-14.54c-1.8-6.78-6.54-12.51-10.38-18.41
				c-0.3,0.01-0.6,0.01-0.89,0.01c-1.09,0-2.12-0.03-3.04-0.03c-1.38,0-2.53,0.07-3.34,0.44c-1.36,0.62-1.75,2.07-0.6,5.38
				c1.41,4.08,3.47,7.27,3.73,11.76c0.25,2.96,0.29,8.89-2.06,10.83c-2.69,2.23-8.03,3.2-12.1,3.2c-0.85,0-1.64-0.04-2.34-0.12
				c-5.21-0.61-10.22-3.1-13.72-7.03c-1.1-1.23-2.07-2.62-2.56-4.2c-0.4-1.28-0.47-2.63-0.51-3.97c-0.18-6.39,0.42-12.8,1.75-19.05
				c1.25-5.85,3.32-11.01,3.35-17.08c0.04-9.64-0.24-19.29-0.44-28.93c-0.04-1.96,0.46-3.49,1.52-4.58c1.05-1.09,2.5-1.99,4.36-2.68
				c3.15-1.18,6.82-2.08,11.01-2.67C229.28,5.07,232.72,4.8,236.16,4.8 M233.75,45.8c2.94-0.06,5.97-0.13,8.91-0.53
				c3.83-0.52,7.53-1.62,10.73-4.02c0.99-0.74,1.93-1.6,2.54-2.68c0.91-1.61,1-3.53,1.05-5.38c0.06-2.04,0.08-4.15-0.67-6.05
				c-1.57-3.95-5.97-5.9-10.06-7.05c-0.88-0.25-1.83-0.47-2.74-0.47c-0.68,0-1.34,0.12-1.94,0.46c-0.54,0.3-0.99,0.76-1.53,1.06
				c-0.63,0.35-1.35,0.49-2.04,0.67c-3.41,0.91-4.7,1.85-4.63,5.18c0.05,2.47,0.11,4.94,0.16,7.42
				C233.6,38.21,233.67,42.01,233.75,45.8 M236.16,2.8c-3.43,0-6.92,0.26-10.65,0.79c-4.32,0.62-8.16,1.55-11.43,2.78
				c-2.12,0.79-3.84,1.86-5.09,3.17c-1.43,1.49-2.12,3.51-2.07,6.01c0.04,2.01,0.09,4.01,0.13,6.02c0.17,7.5,0.34,15.25,0.31,22.86
				c-0.02,3.95-0.97,7.54-1.99,11.35c-0.46,1.71-0.93,3.48-1.32,5.32c-1.37,6.42-1.97,12.99-1.79,19.52
				c0.04,1.44,0.12,2.97,0.6,4.51c0.52,1.65,1.49,3.26,2.98,4.93c3.75,4.21,9.21,7.01,14.99,7.68c0.78,0.09,1.65,0.14,2.57,0.14
				c4.13,0,10.11-0.96,13.37-3.66c3.11-2.57,3.08-8.93,2.78-12.51c-0.2-3.47-1.36-6.21-2.48-8.87c-0.46-1.1-0.94-2.23-1.35-3.41
				c-0.72-2.09-0.56-2.77-0.52-2.88c0.01,0,0.03-0.01,0.06-0.03c0.58-0.26,1.98-0.26,2.51-0.26c0.43,0,0.89,0.01,1.36,0.02
				c0.48,0.01,0.99,0.02,1.5,0.02c0.66,1,1.35,1.99,2.01,2.95c3.04,4.42,6.18,8.99,7.51,13.96c3.01,11.32,8.47,15.51,20.84,16.02
				c0.89,0.04,1.57,0.05,2.22,0.05c2.88,0,6.57-0.3,9.49-2.62c4.66-3.69,4.77-10.68,2.51-15.39c-1.88-3.91-4.86-6.36-7.75-8.74
				c-1.64-1.35-3.19-2.62-4.54-4.14c-4.42-4.98-6.36-9.28-5.8-10.17c0.38-0.61,1.49-1.4,2.48-2.11c0.99-0.71,2.01-1.44,2.77-2.28
				c1.71-1.88,3.33-4.11,4.79-6.62c2.74-4.69,4.01-8.87,3.88-12.78c-0.12-3.81-1.51-7.66-4.37-12.13c-2.74-4.27-5.9-7.78-9.4-10.42
				c-4.54-3.43-10.25-5.91-17.44-7.56C245.38,3.29,240.91,2.8,236.16,2.8L236.16,2.8z M235.71,43.76l-0.15-7.4l-0.04-1.99
				c-0.02-1.06-0.05-2.13-0.07-3.19c-0.03-1.41-0.06-2.82-0.09-4.22c-0.04-1.94,0.06-2.38,3.15-3.21c0.12-0.03,0.25-0.06,0.37-0.1
				c0.65-0.16,1.39-0.35,2.13-0.77c0.39-0.22,0.71-0.47,1-0.68c0.2-0.15,0.38-0.29,0.53-0.37c0.25-0.14,0.56-0.21,0.97-0.21
				c0.69,0,1.5,0.2,2.2,0.4c4.86,1.37,7.72,3.29,8.74,5.86c0.58,1.47,0.59,3.18,0.53,5.26c-0.05,1.76-0.14,3.3-0.79,4.45
				c-0.38,0.67-1.01,1.32-2,2.06c-2.56,1.92-5.67,3.07-9.8,3.64C240.19,43.6,237.93,43.7,235.71,43.76L235.71,43.76z"/>
		</g>
		<g>
			<path class="st1" d="M336.56,20.76c0.23,0,0.47,0,0.7,0c3.46,0.03,6.95,0.23,10.31,1.1c12.48,3.21,22.47,12.53,27.8,24.1
				c2.62,5.68,4.14,11.86,4.43,18.11c0.34,7.41-2.56,14.81-5.3,21.59c-0.93,2.3-1.86,4.61-3.17,6.72
				c-3.37,5.44-8.98,9.13-14.76,11.88c-7.04,3.35-14.62,5.56-22.35,6.54c-1.2,0.15-2.43,0.22-3.66,0.22
				c-5.71,0-11.65-1.52-16.88-3.52c-7.97-3.05-15.05-10.11-19-17.6c-2.56-4.84-4.04-10.27-4.46-16.29
				c-0.34-4.86,0.86-9.53,1.1-14.31c0.09-1.73,0.35-3.43,0.76-5.09c0.85-3.42,2.33-6.67,4.23-9.65c3.3-5.19,7.75-9.54,12.36-13.61
				c2.64-2.33,5.37-4.6,8.48-6.27C323.03,21.53,329.88,20.76,336.56,20.76 M337.01,92.39c3.94,0,7.77-1.98,10.8-6.89
				c4.34-7.03,5.55-17.06,3.01-25.52c-1.93-6.42-6.02-11.94-12.54-14.55c-1.7-0.68-3.34-0.99-4.89-0.99
				c-12.44,0-19.94,19.82-16.53,30.3C319.69,83.42,328.61,92.39,337.01,92.39 M336.56,18.76c-8.59,0-15.05,1.32-20.35,4.15
				c-3.43,1.83-6.37,4.33-8.86,6.53c-4.28,3.78-9.14,8.4-12.73,14.03c-2.11,3.31-3.62,6.76-4.48,10.24
				c-0.45,1.82-0.73,3.66-0.82,5.47c-0.09,1.76-0.31,3.49-0.55,5.32c-0.38,2.97-0.78,6.04-0.55,9.23
				c0.43,6.27,2.01,12.02,4.69,17.09c4.43,8.39,12.11,15.49,20.05,18.53c6.33,2.43,12.25,3.66,17.59,3.66
				c1.34,0,2.66-0.08,3.92-0.24c7.99-1.01,15.71-3.27,22.96-6.71c7.42-3.52,12.52-7.66,15.6-12.63c1.4-2.26,2.38-4.68,3.32-7.03
				c2.59-6.42,5.81-14.4,5.44-22.43c-0.29-6.42-1.89-12.94-4.61-18.85c-5.8-12.59-16.69-22.01-29.12-25.2
				c-3.83-0.98-7.78-1.14-10.79-1.16C337.04,18.76,336.8,18.76,336.56,18.76L336.56,18.76z M337.01,90.39
				c-7.63,0-15.74-8.58-18.25-16.27c-1.93-5.91,0.09-15.39,4.58-21.58c2.02-2.78,5.4-6.09,10.05-6.09c1.35,0,2.74,0.29,4.15,0.85
				c6.94,2.77,10.01,8.74,11.37,13.26c2.37,7.92,1.27,17.3-2.8,23.9C343.68,88.39,340.62,90.39,337.01,90.39L337.01,90.39z"/>
		</g>
		<g>
			<path class="st1" d="M407.31,43.69c1.22,0,2.33,0.27,3.26,0.88c1.89,1.24,3.35,3.01,4.78,4.76c4.3,5.25,8,11.64,12.79,16.4
				c4.33,4.31,10.41,5.79,15.98,7.93c6.1,2.35,11.86,5.6,17.03,9.61c0.67,0.52,1.35,1.07,1.7,1.84c0.32,0.7,0.34,1.5,0.31,2.27
				c-0.2,6.03-2.65,11.8-5.92,16.87c-2.12,3.29-5.34,6.64-9.09,6.64c-0.36,0-0.73-0.03-1.1-0.1c-7.86-1.38-8.7-12.44-16.96-13.25
				c-0.39-0.04-0.76-0.06-1.13-0.06c-7.34,0-10.89,7.36-15.11,12.19c-7.18,8.22-14.61,16.95-16.77,27.65
				c-0.88,4.36-2.02,6.06-4.09,6.06c-1.26,0-2.87-0.64-4.98-1.7c-6.53-3.3-12.25-7.1-18.23-11.3c-1.88-1.32-3.33-3.52-3.12-5.81
				c0.09-0.95,0.45-1.85,0.85-2.71c4.73-10.11,14.92-15.79,23.36-22.4c5.79-4.54,10.47-11.36,12.91-18.28
				c3.82-10.85-2.13-10.06-11.37-10.31c-0.68-0.02-1.37-0.07-1.98-0.35c-0.91-0.41-1.53-1.26-2.1-2.07
				c-0.43-0.6-0.87-1.23-1.26-1.87c-0.81-1.35-1.42-2.79-1.35-4.34C386.09,55.63,399.24,43.69,407.31,43.69 M407.32,41.69
				L407.32,41.69c-8.84,0-23.15,12.42-23.56,20.44c-0.12,2.29,0.88,4.22,1.63,5.47c0.44,0.72,0.92,1.41,1.34,2
				c0.63,0.88,1.48,2.09,2.9,2.73c0.94,0.43,1.88,0.51,2.76,0.53c0.71,0.02,1.4,0.03,2.07,0.04c3.77,0.07,7.32,0.14,8.19,1.39
				c0.36,0.52,0.75,2.03-0.72,6.22c-2.36,6.71-6.95,13.21-12.26,17.37c-1.73,1.36-3.59,2.71-5.38,4.02
				c-7.17,5.23-14.59,10.64-18.55,19.11c-0.44,0.95-0.91,2.09-1.03,3.37c-0.26,2.81,1.25,5.73,3.96,7.63
				c6.41,4.51,12.01,8.18,18.48,11.45c1.97,1,4.05,1.92,5.88,1.92c4.5,0,5.54-5.18,6.05-7.67c2.11-10.46,9.66-19.1,16.32-26.73
				c0.96-1.1,1.88-2.31,2.77-3.49c3.12-4.12,6.07-8.01,10.83-8.01c0.3,0,0.62,0.02,0.93,0.05c3.36,0.33,5.23,2.89,7.4,5.86
				c2.25,3.08,4.8,6.56,9.41,7.37c0.48,0.08,0.96,0.13,1.44,0.13c3.8,0,7.63-2.68,10.77-7.56c3.95-6.12,6.05-12.14,6.24-17.89
				c0.03-1.02,0-2.1-0.5-3.17c-0.54-1.16-1.43-1.91-2.29-2.58c-5.34-4.14-11.24-7.47-17.54-9.9c-1.13-0.44-2.28-0.85-3.4-1.24
				c-4.49-1.6-8.73-3.1-11.89-6.24c-2.83-2.81-5.34-6.33-7.78-9.74c-1.56-2.18-3.18-4.44-4.87-6.51c-1.44-1.76-3.07-3.75-5.23-5.16
				C410.44,42.1,408.98,41.69,407.32,41.69L407.32,41.69z"/>
		</g>
	</g>
</g>
</svg>
