<?xml version="1.0" encoding="utf-8"?>
<!-- Generator: Adobe Illustrator 24.1.2, SVG Export Plug-In . SVG Version: 6.00 Build 0)  -->
<svg version="1.1" id="Capa_1" xmlns="http://www.w3.org/2000/svg" xmlns:xlink="http://www.w3.org/1999/xlink" x="0px" y="0px"
	 viewBox="0 0 600 600" style="enable-background:new 0 0 600 600;" xml:space="preserve">
<style type="text/css">
	.st0{fill:#FAC9DC;}
	.st1{fill:#282F39;}
	.st2{fill:#EF9AC0;}
	.st3{fill:#FFFFFF;}
	.st4{fill:#666666;}
</style>
<g>
	<circle class="st0" cx="300" cy="300" r="292.49"/>
	<path class="st1" d="M245.82,339.63c0.02,0.1,0.03,0.21,0.05,0.31c-0.04-0.06-0.08-0.1-0.13-0.15
		C245.74,339.79,245.82,339.63,245.82,339.63z"/>
	<path class="st2" d="M380.91,88.89c4.39,4.73,7.6,10.18,9.27,16.46c1.07,4.01,1.79,8.1,2.68,12.17c0.82,3.77,1.17,7.62,2.24,11.33
		c1.54,5.34,3.23,10.54,8.77,13.21c0.08,0.25,0.15,0.5,0.23,0.75c4.08,2.62,7.33,6.13,10.51,9.73c0.54,0.62,0.91,1.44,1.77,1.77
		c1.86,3.37,3.99,6.57,5.63,10.08c2.69,5.76,4.18,11.81,4.67,18.07c0.52,6.51,0.14,13-2.12,19.26c-0.39,1.1-4.35,9.94-4.95,10.29
		c-0.76,0.44-2.2,2.65-2.81,3.58c-0.54,0.85-1.86,3.43-2.58,4.54c-2.2,3.38-1.18,6.68-0.09,10.16c1.79,5.75,3.59,11.48,4.85,17.4
		c0.93,4.38,1.78,8.78,2.33,13.22c1.17,9.53-0.21,18.69-4.68,27.24c-1.96,3.77-3.97,7.55-6.38,11.02c-3.1,4.47-3.61,9.09-2.44,14.26
		c1.82,8.12,0.11,15.91-2.55,23.63c-2.79,8.09-6.82,15.38-12.82,21.48c-6.47,6.58-14.33,10.87-23.2,13.36
		c-4.69,1.31-9.4,2.45-14.28,2.88c-1.62,0.14-2.72,1.68-4,2.66c-6.03,4.61-11.9,9.41-16.35,15.64c-2.85,3.98-4.41,8.47-4.61,13.38
		c-0.27,6.76,0.74,13.42,1.67,20.09c0.96,6.88,1.64,13.81,2.55,20.7c1.14,8.58,2.55,17.13,3.55,25.73
		c1.02,8.83,1.77,17.69,2.11,26.59c0.26,6.75-0.08,13.47-0.73,20.14c-0.58,5.96-1.91,11.89-4.36,17.46
		c-0.39,0.91-0.61,1.9-0.91,2.85c-2.06,1.44-2.69,3.91-4.25,5.74c-4.82,5.64-10.68,9.32-18.08,10.39
		c-3.98,0.58-7.98,0.74-11.99,0.51c-7.51-0.64-13.86-3.76-19.2-9c-0.01,0.01,17.04,17.09,43.76,43.83
		c150.1-12.24,268.14-137.82,268.38-291.03L380.91,88.89z"/>
	<g>
		<path class="st3" d="M337.45,381.65c-4.23,4.3-7.88,9-9.92,14.7c-1.7,4.74-1.61,9.74-1.18,14.7c0.44,5.03,0.51,10.07,0.37,15.1
			c-0.13,4.44-1.66,5.82-6.03,5.5c-2.1-0.15-4.23-0.17-6.23,0.34c-1.98,0.5-3.74,1.76-5.78,2.79c1.46,0,2.93,0.01,4.39,0
			c3.41-0.04,6.82-0.21,10.19,0.51c2.99,0.63,4.52,2.31,4.88,5.32c1.31,10.6,2.98,21.16,3.87,31.79
			c1.14,13.64,2.47,27.31,0.55,41.04c-1.07,7.68-2.28,15.24-5.78,22.24c-4.59,9.2-11.72,14.5-22.27,14.93
			c-11.68,0.48-19.78-4.75-25.29-14.82c-6.27-11.48-10.48-23.73-14.16-36.23c-3.38-11.47-5.8-23.19-9.33-34.62
			c-0.7-2.28-1.04-4.68-1.46-7.03c-0.87-4.82,1.33-8.2,5.25-10.58c5.22-3.17,11.07-4.57,17-5.7c1.66-0.32,3.31-0.64,4.98-0.96
			c0.02-0.08,0.04-0.15,0.06-0.23c-3.78,0-7.57-0.07-11.35,0.02c-4.03,0.09-8.06,0.34-12.08,0.5c-2.78,0.11-3.66-0.74-3.87-3.57
			c-0.27-3.75,0.45-7.42,0.82-11.11c1.63-16.82,3.16-33.63,2.04-50.56c-0.36-5.37-0.25-5.46,5.19-5.09
			c5.41,0.38,10.81,1.25,16.23,0.4c5-0.78,9.97-1,15.03-0.69c6.73,0.4,13.39,1.38,20.07,2.22c9.91,1.24,19.79,2.52,29.2,2.87
			C341.17,377.35,339.44,379.62,337.45,381.65z"/>
		<path class="st3" d="M179.08,237.18c0.19-8.04,0.44-16.14,2.55-23.97c2.27-8.45,7.3-14.51,15.88-17.34
			c7.93-2.63,16.06-2.42,24.15-1.58c14.62,1.52,29.12,4.01,43.85,4.75c11.58,0.58,23.16,1.72,34.55,4.08
			c8.6,1.79,17.02,4.28,25.17,7.63c2.73,1.12,5.44,2.3,8.7,3.69c-3.78-5.47-9.11-7.77-14.88-10.47c6.17-1,11.38-2.49,14.78-8.1
			c-2.72,1.07-5,2.1-7.37,2.88c-7.21,2.38-14.53,1.71-21.82,0.49c-11.2-1.88-22.13-5.03-33.27-7.17
			c-10.91-2.1-21.99-2.56-33.08-2.38c-9.84,0.16-19.68,0.53-29.52,0.65c-5.62,0.07-10.89-1.12-14.9-5.53
			c-2.76-3.03-3.46-6.83-3.84-10.69c-0.44-4.54-0.03-9.07-0.12-13.62c0-2.43,0.78-4.76,1.16-7.14c0.4-2.54,0.9-5.08,1.46-7.6
			c0.3-1.31,0.62-2.62,1.21-3.81c1.39-2.82,4.48-4.22,7.04-5.77c3.15-1.92,6.27-3.86,9.29-5.97c4.8-3.37,10.15-4.96,15.8-5.15
			c8.53-0.3,17.02-0.87,25.53-1.34c6.52-0.36,13,0.53,19.5,0.81c7.04,0.31,14.06,1,21.06,1.79c6.29,0.7,12.55,1.7,18.73,3.15
			c0.59,0.14,1.15,0.46,1.77-0.1c-3.4-2.19-7.15-3.3-11.15-4.08c1.8-1.61,4.4-1.62,6.11-3.71c-11.9,1.94-23.43,0.88-34.98-0.54
			c-14.06-1.72-28.1-4.06-42.34-2.63c-4.3,0.43-8.64,0.61-12.91,1.44c-4.15,0.8-7.3-0.99-9.11-5c-3.47-7.71-3.87-15.69-1.8-23.8
			c3.36-13.16,12.15-22.05,23.29-28.96c6.57-4.08,13.63-7.15,21.04-9.35c10.67-3.17,21.31-3.3,31.92,0.42
			c8.56,3,16.23,7.7,23.94,12.3c6.28,3.75,12.65,7.33,19.28,10.43c0.19,0.08,0.45,0.01,1.3,0.01c-10.38-6.46-19.4-13.98-29.52-19.9
			c-0.71-0.42-1.43-0.85-2.54-1.51c1.35,0.35,2.26,0.58,3.18,0.82c8.98,3.42,17.93,6.91,26.64,10.97
			c9.88,4.6,20.35,7.96,29.64,13.76c11.6,7.23,20.89,16.78,27.47,28.8c2.34,4.27,3.92,8.82,3.72,13.92
			c-0.27,6.66-3.81,10.67-9.56,13.33c-2.62,1.22-5.45,1.64-8.15,2.54c-0.8,0.27-1.97,0.22-2.03,1.19c-0.07,1.03,1.08,1.45,1.92,1.69
			c3.56,1.02,7.17,1.88,10.72,2.91c10.9,3.18,21.47,7,29.75,15.3c5.18,5.19,7.84,11.6,9.13,18.69c1.15,6.33,1.3,12.67-0.1,18.94
			c-2.12,9.54-6.39,16.68-17.84,18.33c-1.45,0.21-2.91,0.47-4.29,0.94c-2.31,0.78-2.68,2.35-1.03,4.19c0.7,0.79,1.57,1.45,2.38,2.12
			c7.13,5.89,11.33,13.44,13.09,22.48c1.36,7,2.32,14.03,2.35,21.19c0.03,7.89-2.27,15.24-4.92,22.5
			c-2.33,6.38-5.37,12.38-10.55,17.03c-1.13,1-1.07,1.94-0.25,3.23c2.68,4.23,4.82,8.73,4.23,13.9
			c-1.89,16.89-8.84,30.61-24.42,39.04c-11.76,6.36-24.47,7.78-37.47,7.74c-9.06-0.03-18.09-0.88-27.15-2.29
			c6.63-1.74,13.41-2.99,19.76-6c-0.82-0.84-1.61-0.43-2.3-0.35c-19.31,2.47-38.69,3.94-58.18,3.43
			c-14.27-0.38-28.45-1.8-42.22-5.74c-11.06-3.16-21.54-7.72-29.58-16.4c-7.24-7.82-11.63-16.82-10.38-27.83
			c0.28-2.44,0.76-4.91,1.51-7.25c1.48-4.62,1.64-9.45,2.5-14.16c1.44-7.92,4.69-14.58,12-18.69c0.07-0.04,0.13-0.08,0.2-0.12
			c0.33-0.23,0.65-0.49,0.98-0.69c0.4-0.25,0.91-0.41,1.34-0.6c0.46-0.21,0.93-0.41,1.4-0.59c2.75-1.03,5.66-1.17,8.56-1.31
			c12.85-0.59,24.89,2.59,36.58,7.59c4.96,2.12,10.07,3.85,15.38,4.9c6.8,1.35,13.69,1.34,20.59,1.54
			c9.35,0.26,18.05,2.93,26.13,7.67c1.22,0.71,2.28,1.97,4.26,1.95c-2.51-2.94-5.27-5.14-8.38-7.85c1.81-0.2,3.09-0.25,4.34-0.48
			c4.38-0.81,8.16-2.68,10.83-6.38c-0.57-0.18-1,0.13-1.48,0.37c-6.75,3.37-13.69,4.69-20.95,1.7c-2.08-0.85-4.23-1.48-6.38-2.01
			c-7.13-1.74-14.41-1.9-21.69-2c-3.84-0.06-7.55-0.78-11.15-1.91c-8.89-2.79-17.74-5.7-26.54-8.76
			c-6.21-2.16-12.52-2.63-18.98-1.98c-0.82,0.08-1.63,0.31-2.45,0.46c-0.93,0.17-1.86,0.34-2.79,0.52
			c-1.56,0.29-3.04,0.85-4.62,1.04c-0.37,0.05-0.73,0.06-1.11,0.08c-1.27,0.04-2.53,0.08-3.79,0c-2.61-0.17-5.15-0.91-7.56-1.89
			c-2.8-1.13-5.43-2.66-7.77-4.56c-2.26-1.86-4.23-4.07-5.81-6.54c-1.61-2.53-2.82-5.3-3.6-8.19
			C179.34,243.58,179,240.38,179.08,237.18z"/>
		<g>
			<path class="st4" d="M326.89,280.28c-0.02,0.03-0.04,0.05-0.06,0.08h0.01L326.89,280.28z"/>
			<path class="st4" d="M173.15,241.62c0.09,6.31,2.5,11.77,6.05,16.72c4.09,5.7,9.3,10.3,15.47,13.71
				c1.33,0.74,1.63,1.03,0.25,2.29c-4.69,4.26-8.1,9.29-8.29,15.95c-0.21,7.43-1.28,14.71-2.91,22c-2.51,11.2,0.06,21.46,7.31,30.47
				c7.69,9.56,18.15,14.94,29.26,19.21c9.19,3.53,18.8,5.58,28.52,7.08c1.3,0.2,1.91,0.87,2.01,2.12c0.13,1.54,0.36,3.07,0.42,4.62
				c0.69,14.88-0.33,29.73-1.54,44.53c-0.92,11.21-1.63,22.37-0.75,33.59c0.81,10.28,3.11,20.28,5.63,30.23
				c1.54,6.07,3.16,12.1,4.93,18.11c1.96,6.67,4.19,13.22,6.55,19.75c1.13,3.1,2.99,5.92,3.49,9.25c1.9,2.2,2.97,4.84,4.01,7.48
				c1.72,1.79,2.59,4.17,4.13,6.08c0.83,0.9,1.61,1.84,2.49,2.7c5.37,5.31,11.76,8.47,19.33,9.12c4.02,0.23,8.01,0.07,11.99-0.51
				c7.4-1.08,13.26-4.76,18.08-10.39c1.56-1.83,2.21-4.3,4.25-5.74c0.3-0.95,0.51-1.93,0.91-2.85c2.45-5.58,3.77-11.5,4.36-17.46
				c0.65-6.67,1-13.39,0.73-20.14c-0.35-8.9-1.09-17.76-2.11-26.59c-1-8.59-2.41-17.15-3.55-25.73c-0.91-6.89-1.6-13.82-2.55-20.7
				c-0.92-6.68-1.94-13.32-1.67-20.09c0.2-4.91,1.77-9.4,4.61-13.38c4.45-6.23,10.32-11.03,16.35-15.64c1.28-0.98,2.38-2.52,4-2.66
				c4.88-0.43,9.6-1.57,14.28-2.88c8.87-2.49,16.73-6.78,23.2-13.36c5.99-6.1,10.02-13.39,12.82-21.48
				c2.67-7.74,4.37-15.51,2.55-23.63c-1.15-5.17-0.66-9.79,2.44-14.26c2.41-3.48,4.42-7.26,6.38-11.02
				c4.47-8.55,5.85-17.71,4.68-27.24c-0.54-4.44-1.4-8.84-2.33-13.22c-1.26-5.92-3.06-11.65-4.85-17.4
				c-1.09-3.48-2.1-6.78,0.09-10.16c0.72-1.11,2.04-3.69,2.58-4.54c0.6-0.94,2.05-3.14,2.81-3.58c0.59-0.35,4.54-9.19,4.95-10.29
				c2.26-6.26,2.64-12.75,2.12-19.26c-0.49-6.25-1.97-12.31-4.67-18.07c-1.64-3.51-3.77-6.71-5.63-10.08
				c-0.85-0.32-1.22-1.14-1.77-1.77c-3.17-3.6-6.42-7.11-10.51-9.73c-0.08-0.25-0.15-0.5-0.23-0.75c-5.54-2.67-7.23-7.87-8.77-13.21
				c-1.07-3.72-1.44-7.57-2.24-11.33c-0.88-4.06-1.61-8.16-2.68-12.17c-1.77-6.65-5.24-12.38-10.04-17.31
				c-4.25-3.58-8.87-6.61-13.74-9.29c-0.59-0.33-1.06-0.87-1.59-1.31c-0.81,0.06-1.45-0.34-2.14-0.7
				c-6.38-3.38-12.96-6.36-19.58-9.24c-7.7-3.35-15.58-6.25-23.46-9.12c-6.15-2.23-12.37-4.24-18.56-6.36
				c-2.1-0.77-4.35-1.13-6.35-2.21c-3-0.32-5.79-1.48-8.69-2.24c-6.9-1.8-13.52-4.92-20.92-4.24c-2.99,0.31-5.98,0.62-8.97,0.94
				c-0.44,0.12-0.88,0.28-1.33,0.38c-9.43,1.92-18.22,5.43-26.47,10.36c-5.95,3.55-11.3,7.84-16.21,12.71
				c-1.15,1.35-2.31,2.7-3.46,4.06c-1.14,1.63-2.25,3.29-3.43,4.88c-2.34,3.18-3.47,6.98-5.42,10.36
				c-1.49,5.1-1.77,10.31-1.58,15.58c0.24,6.68,2.72,12.59,5.96,18.27c1.95,3.43,1.96,3.43-1.71,5.31
				c-1.28,1.24-2.88,1.99-4.38,2.88c-4.03,2.38-7.51,5.23-9.22,9.81c-0.56,1.52-1.22,2.95-1.61,4.5c-0.04,0.15-0.09,0.3-0.14,0.45
				c-1,2.82-1.63,5.63-2.13,8.57c-0.42,2.45-0.98,5.13-0.69,7.62c-0.04,0.18-0.07,0.38-0.09,0.6c-0.56,4.34-0.31,8.68-0.41,13.01
				c0.77,2.94,0.72,6.04,1.89,8.93c0.65,1.62,2.25,2.7,2.37,4.55c0.96,0.77,1.93,1.52,2.86,2.32c2.39,2.06,2.39,2.07-0.3,3.62
				c-0.87,0.5-1.75,0.99-2.63,1.47c-6.56,3.62-10.29,9.31-12.08,16.45C173.4,221.05,173,231.3,173.15,241.62z M337.45,381.65
				c-4.23,4.3-7.88,9-9.92,14.7c-1.7,4.74-1.61,9.74-1.18,14.7c0.44,5.03,0.51,10.07,0.37,15.1c-0.13,4.44-1.66,5.82-6.03,5.5
				c-2.1-0.15-4.23-0.17-6.23,0.34c-1.98,0.5-3.74,1.76-5.78,2.79c1.46,0,2.93,0.01,4.39,0c3.41-0.04,6.82-0.21,10.19,0.51
				c2.99,0.63,4.52,2.31,4.88,5.32c1.31,10.6,2.98,21.16,3.87,31.79c1.14,13.64,2.47,27.31,0.55,41.04
				c-1.07,7.68-2.28,15.24-5.78,22.24c-4.59,9.2-11.72,14.5-22.27,14.93c-11.68,0.48-19.78-4.75-25.29-14.82
				c-6.27-11.48-10.48-23.73-14.16-36.23c-3.38-11.47-5.8-23.19-9.33-34.62c-0.7-2.28-1.04-4.68-1.46-7.03
				c-0.87-4.82,1.33-8.2,5.25-10.58c5.22-3.17,11.07-4.57,17-5.7c1.66-0.32,3.31-0.64,4.98-0.96c0.02-0.08,0.04-0.15,0.06-0.23
				c-3.78,0-7.57-0.07-11.35,0.02c-4.03,0.09-8.06,0.34-12.08,0.5c-2.78,0.11-3.66-0.74-3.87-3.57c-0.27-3.75,0.45-7.42,0.82-11.11
				c1.63-16.82,3.16-33.63,2.04-50.56c-0.36-5.37-0.25-5.46,5.19-5.09c5.41,0.38,10.81,1.25,16.23,0.4c5-0.78,9.97-1,15.03-0.69
				c6.73,0.4,13.39,1.38,20.07,2.22c9.91,1.24,19.79,2.52,29.2,2.87C341.17,377.35,339.44,379.62,337.45,381.65z M179.08,237.18
				c0.19-8.04,0.44-16.14,2.55-23.97c2.27-8.45,7.3-14.51,15.88-17.34c7.93-2.63,16.06-2.42,24.15-1.58
				c14.62,1.52,29.12,4.01,43.85,4.75c11.58,0.58,23.16,1.72,34.55,4.08c8.6,1.79,17.02,4.28,25.17,7.63
				c2.73,1.12,5.44,2.3,8.7,3.69c-3.78-5.47-9.11-7.77-14.88-10.47c6.17-1,11.38-2.49,14.78-8.1c-2.72,1.07-5,2.1-7.37,2.88
				c-7.21,2.38-14.53,1.71-21.82,0.49c-11.2-1.88-22.13-5.03-33.27-7.17c-10.91-2.1-21.99-2.56-33.08-2.38
				c-9.84,0.16-19.68,0.53-29.52,0.65c-5.62,0.07-10.89-1.12-14.9-5.53c-2.76-3.03-3.46-6.83-3.84-10.69
				c-0.44-4.54-0.03-9.07-0.12-13.62c0-2.43,0.78-4.76,1.16-7.14c0.4-2.54,0.9-5.08,1.46-7.6c0.3-1.31,0.62-2.62,1.21-3.81
				c1.39-2.82,4.48-4.22,7.04-5.77c3.15-1.92,6.27-3.86,9.29-5.97c4.8-3.37,10.15-4.96,15.8-5.15c8.53-0.3,17.02-0.87,25.53-1.34
				c6.52-0.36,13,0.53,19.5,0.81c7.04,0.31,14.06,1,21.06,1.79c6.29,0.7,12.55,1.7,18.73,3.15c0.59,0.14,1.15,0.46,1.77-0.1
				c-3.4-2.19-7.15-3.3-11.15-4.08c1.8-1.61,4.4-1.62,6.11-3.71c-11.9,1.94-23.43,0.88-34.98-0.54c-14.06-1.72-28.1-4.06-42.34-2.63
				c-4.3,0.43-8.64,0.61-12.91,1.44c-4.15,0.8-7.3-0.99-9.11-5c-3.47-7.71-3.87-15.69-1.8-23.8c3.36-13.16,12.15-22.05,23.29-28.96
				c6.57-4.08,13.63-7.15,21.04-9.35c10.67-3.17,21.31-3.3,31.92,0.42c8.56,3,16.23,7.7,23.94,12.3
				c6.28,3.75,12.65,7.33,19.28,10.43c0.19,0.08,0.45,0.01,1.3,0.01c-10.38-6.46-19.4-13.98-29.52-19.9
				c-0.71-0.42-1.43-0.85-2.54-1.51c1.35,0.35,2.26,0.58,3.18,0.82c8.98,3.42,17.93,6.91,26.64,10.97
				c9.88,4.6,20.35,7.96,29.64,13.76c11.6,7.23,20.89,16.78,27.47,28.8c2.34,4.27,3.92,8.82,3.72,13.92
				c-0.27,6.66-3.81,10.67-9.56,13.33c-2.62,1.22-5.45,1.64-8.15,2.54c-0.8,0.27-1.97,0.22-2.03,1.19
				c-0.07,1.03,1.08,1.45,1.92,1.69c3.56,1.02,7.17,1.88,10.72,2.91c10.9,3.18,21.47,7,29.75,15.3c5.18,5.19,7.84,11.6,9.13,18.69
				c1.15,6.33,1.3,12.67-0.1,18.94c-2.12,9.54-6.39,16.68-17.84,18.33c-1.45,0.21-2.91,0.47-4.29,0.94
				c-2.31,0.78-2.68,2.35-1.03,4.19c0.7,0.79,1.57,1.45,2.38,2.12c7.13,5.89,11.33,13.44,13.09,22.48c1.36,7,2.32,14.03,2.35,21.19
				c0.03,7.89-2.27,15.24-4.92,22.5c-2.33,6.38-5.37,12.38-10.55,17.03c-1.13,1-1.07,1.94-0.25,3.23c2.68,4.23,4.82,8.73,4.23,13.9
				c-1.89,16.89-8.84,30.61-24.42,39.04c-11.76,6.36-24.47,7.78-37.47,7.74c-9.06-0.03-18.09-0.88-27.15-2.29
				c6.63-1.74,13.41-2.99,19.76-6c-0.82-0.84-1.61-0.43-2.3-0.35c-19.31,2.47-38.69,3.94-58.18,3.43
				c-14.27-0.38-28.45-1.8-42.22-5.74c-11.06-3.16-21.54-7.72-29.58-16.4c-7.24-7.82-11.63-16.82-10.38-27.83
				c0.28-2.44,0.76-4.91,1.51-7.25c1.48-4.62,1.64-9.45,2.5-14.16c1.44-7.92,4.69-14.58,12-18.69c0.07-0.04,0.13-0.08,0.2-0.12
				c0.33-0.23,0.65-0.49,0.98-0.69c0.4-0.25,0.91-0.41,1.34-0.6c0.46-0.21,0.93-0.41,1.4-0.59c2.75-1.03,5.66-1.17,8.56-1.31
				c12.85-0.59,24.89,2.59,36.58,7.59c4.96,2.12,10.07,3.85,15.38,4.9c6.8,1.35,13.69,1.34,20.59,1.54
				c9.35,0.26,18.05,2.93,26.13,7.67c1.22,0.71,2.28,1.97,4.26,1.95c-2.51-2.94-5.27-5.14-8.38-7.85c1.81-0.2,3.09-0.25,4.34-0.48
				c4.38-0.81,8.16-2.68,10.83-6.38c-0.57-0.18-1,0.13-1.48,0.37c-6.75,3.37-13.69,4.69-20.95,1.7c-2.08-0.85-4.23-1.48-6.38-2.01
				c-7.13-1.74-14.41-1.9-21.69-2c-3.84-0.06-7.55-0.78-11.15-1.91c-8.89-2.79-17.74-5.7-26.54-8.76
				c-6.21-2.16-12.52-2.63-18.98-1.98c-0.82,0.08-1.63,0.31-2.45,0.46c-0.93,0.17-1.86,0.34-2.79,0.52
				c-1.56,0.29-3.04,0.85-4.62,1.04c-0.37,0.05-0.73,0.06-1.11,0.08c-1.27,0.04-2.53,0.08-3.79,0c-2.61-0.17-5.15-0.91-7.56-1.89
				c-2.8-1.13-5.43-2.66-7.77-4.56c-2.26-1.86-4.23-4.07-5.81-6.54c-1.61-2.53-2.82-5.3-3.6-8.19
				C179.34,243.58,179,240.38,179.08,237.18z"/>
			<path class="st4" d="M274.6,205.63c6.82,17.01,2.45,45.56-6.33,58.65c1.7-9.63,3.41-19.27,4.64-28.98
				C274.14,225.48,275.25,215.64,274.6,205.63z"/>
			<path class="st4" d="M273.15,356.42c5.45-19.9,9.56-39.96,8.94-60.85c1,0.23,1.24,0.86,1.34,1.65
				c1.06,8.01,1.05,16.02,0.34,24.07c-0.55,6.17-1.51,12.25-3.15,18.22C278.99,345.48,276.97,351.32,273.15,356.42z"/>
			<path class="st4" d="M197.25,331.21c-6.56-27.77-1.84-31.68,3.64-47.45c0.18,5.16,0.95,10.34-0.55,15.47
				c-1.77,6.1-3.24,12.22-2.17,18.72c0.61,3.74,0.14,7.59-0.08,11.38C198.06,329.97,197.95,330.56,197.25,331.21z"/>
			<path class="st4" d="M259.79,183.88c-0.3-2.68,0.22-4.62,0.51-6.57c2.05-13.78,2.21-27.61,0.69-41.46
				c-0.14-1.3-0.5-2.57-0.78-3.86c-0.09-0.4-0.59-0.89,0.16-1.1c0.66-0.18,0.64,0.44,0.84,0.85c1.38,2.72,2.01,5.71,2.54,8.65
				c1.65,9.17,2.29,18.42,0.88,27.72C263.83,173.38,262.48,178.48,259.79,183.88z"/>
			<path class="st4" d="M264.04,112.01c1.2-17.41,1.31-34.74-1.96-52.09C266.76,65.46,270.26,98.07,264.04,112.01z"/>
			<path class="st4" d="M188.14,252.59c-5.48-16.34-5.11-32.06,4.64-46.79C187.56,221.03,188.03,236.84,188.14,252.59z"/>
			<path class="st4" d="M267.16,140.65c2.76,14.52,2.85,28.99-1.49,43.31C267.29,169.57,268.16,155.15,267.16,140.65z"/>
			<path class="st4" d="M269.84,218.08c1.84,13.64,0.4,26.79-5.93,39.19C266.33,244.27,269.19,231.35,269.84,218.08z"/>
			<path class="st4" d="M193.42,161c-0.1,1.2-0.11,2.41-0.06,3.66c0.2,4.35,1.46,8.55,2.72,12.69c0.61,2.01,0.42,4.35,2.13,6.32
				c0-2.11,0.03-3.9,0-5.67c-0.14-8.44-0.63-16.88-0.08-25.32c0.69-3.66,1.48-9.84,1.11-12.85c-0.54,3.83-3.23,6.78-3.91,10.53
				c-0.09,0.51-0.18,1.01-0.27,1.51c-0.42,2.25-0.85,4.52-1.3,6.77C193.6,159.43,193.49,160.22,193.42,161z"/>
			<path class="st4" d="M260.98,436.08c7.35-10.69,46.78-17.15,56.11-9.15c-9.77-0.01-19.28-0.25-28.69,1.26
				C279.05,429.7,270.06,432.56,260.98,436.08z"/>
		</g>
	</g>
	<path class="st4" d="M300,7.51c161.54,0,292.49,130.95,292.49,292.49S461.54,592.49,300,592.49S7.51,461.54,7.51,300
		S138.46,7.51,300,7.51 M300,0c-40.5,0-79.78,7.93-116.78,23.58c-35.73,15.11-67.8,36.74-95.35,64.29s-49.18,59.63-64.29,95.35
		C7.93,220.21,0,259.5,0,300s7.93,79.78,23.58,116.78c15.11,35.73,36.74,67.8,64.29,95.35c27.55,27.55,59.63,49.18,95.35,64.29
		C220.21,592.07,259.5,600,300,600s79.78-7.93,116.78-23.58c35.73-15.11,67.8-36.74,95.35-64.29
		c27.55-27.55,49.18-59.63,64.29-95.35C592.07,379.79,600,340.5,600,300s-7.93-79.78-23.58-116.78
		c-15.11-35.73-36.74-67.8-64.29-95.35c-27.55-27.55-59.63-49.18-95.35-64.29C379.78,7.93,340.5,0,300,0L300,0z"/>
</g>
</svg>
