<?xml version="1.0" encoding="utf-8"?>
<!-- Generator: Adobe Illustrator 24.1.2, SVG Export Plug-In . SVG Version: 6.00 Build 0)  -->
<svg version="1.1" id="Capa_1" xmlns="http://www.w3.org/2000/svg" xmlns:xlink="http://www.w3.org/1999/xlink" x="0px" y="0px"
	 viewBox="0 0 593 689" style="enable-background:new 0 0 593 689;" xml:space="preserve">
<style type="text/css">
	.st0{fill:#FFD50A;}
	.st1{fill:#81C050;}
</style>
<g>
	<path class="st0" d="M460.5,612h-231v76H460c4.21,0,8.34,0.35,12.38,1h120.67C566.58,643.15,517.1,612.18,460.5,612z"/>
	<path class="st1" d="M229,381c-84.47,0-153.23,68.59-153.5,153v78H72c-32.16,0-59.79-19.7-71.5-47.65v105.94
		C21.87,681.58,46.2,688,72,688h3.5v1h76v-1H229c84.64,0,153.5-68.86,153.5-153.5S313.64,381,229,381z M229,612h-77.5v-77.5
		c0-42.73,34.77-77.5,77.5-77.5s77.5,34.77,77.5,77.5S271.73,612,229,612z"/>
	<path class="st0" d="M229,612h-77.5v-77.5c0-42.73,34.77-77.5,77.5-77.5s77.5,34.77,77.5,77.5S271.73,612,229,612z"/>
	<path class="st0" d="M460.5,612h-231v76H460c4.21,0,8.34,0.35,12.38,1h120.67C566.58,643.15,517.1,612.18,460.5,612z"/>
	<path class="st1" d="M229,381c-84.47,0-153.23,68.59-153.5,153v78H72c-32.16,0-59.79-19.7-71.5-47.65v105.94
		C21.87,681.58,46.2,688,72,688h3.5v1h76v-1H229c84.64,0,153.5-68.86,153.5-153.5S313.64,381,229,381z M229,612h-77.5v-77.5
		c0-42.73,34.77-77.5,77.5-77.5s77.5,34.77,77.5,77.5S271.73,612,229,612z"/>
	<path class="st0" d="M229,612h-77.5v-77.5c0-42.73,34.77-77.5,77.5-77.5s77.5,34.77,77.5,77.5S271.73,612,229,612z"/>
	<path class="st0" d="M77.5,153.5C77.5,196.23,42.73,231,0,231v76c84.64,0,153.5-68.86,153.5-153.5c0-42.73,34.77-77.5,77.5-77.5V0
		C146.36,0,77.5,68.86,77.5,153.5z"/>
	<path class="st1" d="M77.5,153.5C77.5,68.86,146.36,0,231,0H0.5v3v13.84v214.15C43,230.72,77.5,196.06,77.5,153.5z"/>
</g>
</svg>
