<?xml version="1.0" encoding="utf-8"?>
<!-- Generator: Adobe Illustrator 24.1.2, SVG Export Plug-In . SVG Version: 6.00 Build 0)  -->
<svg version="1.1" id="Capa_1" xmlns="http://www.w3.org/2000/svg" xmlns:xlink="http://www.w3.org/1999/xlink" x="0px" y="0px"
	 viewBox="0 0 534 614" style="enable-background:new 0 0 534 614;" xml:space="preserve">
<style type="text/css">
	.st0{fill:#FFD50A;}
	.st1{fill:#81C050;}
</style>
<g>
	<g>
		<path class="st0" d="M389.06,385.38h-76c0-42.73-34.77-77.5-77.5-77.5v-76C320.2,231.88,389.06,300.74,389.06,385.38z"/>
	</g>
</g>
<path class="st1" d="M314.45,153.63v155c0,42.73-34.77,77.5-77.5,77.5c-84.64,0-153.5,68.86-153.5,153.5
	c0,27.02,7.03,52.42,19.33,74.5h112.87c-32.41-9.28-56.2-39.15-56.2-74.5c0-42.73,34.77-77.5,77.5-77.5
	c84.64,0,153.5-68.86,153.5-153.5v-155c0-42.73,34.77-77.5,77.5-77.5h66.5v-76h-66.5C383.31,0.13,314.45,68.98,314.45,153.63z"/>
<polygon class="st0" points="85.44,460.13 0.47,460.13 77.47,614.13 162.44,614.13 "/>
<path class="st0" d="M467.95,0.13c-84.64,0-153.5,68.86-153.5,153.5h76c0-42.73,34.77-77.5,77.5-77.5V0.13z"/>
</svg>
